<?xml version="1.0" encoding="utf-8"?>
<!-- Generator: Adobe Illustrator 19.1.0, SVG Export Plug-In . SVG Version: 6.00 Build 0)  -->
<!DOCTYPE svg PUBLIC "-//W3C//DTD SVG 1.1//EN" "http://www.w3.org/Graphics/SVG/1.1/DTD/svg11.dtd">
<svg version="1.1" id="Layer_1" xmlns="http://www.w3.org/2000/svg" xmlns:xlink="http://www.w3.org/1999/xlink" x="0px" y="0px"
	 viewBox="127 231.5 1003.9 861.7" style="enable-background:new 127 231.5 1003.9 861.7;" xml:space="preserve">
<style type="text/css">
	.st0{fill:none;stroke:#C6C3C1;stroke-width:5;stroke-miterlimit:10;}
	.st1{fill:#C6C3C1;stroke:#C6C3C1;stroke-width:7;stroke-miterlimit:10;}
	.st2{fill:#E9C382;}
	.st3{fill:none;stroke:#E9C382;stroke-width:3.8324;stroke-miterlimit:10;}
	.st4{fill:#DB9F45;}
	.st5{fill:none;stroke:#DB9F45;stroke-width:5;stroke-miterlimit:10;}
	.st6{fill:#C45852;}
	.st7{fill:none;stroke:#C45852;stroke-width:5;stroke-miterlimit:10;}
	.st8{fill:#CCCACA;}
	.st9{fill:none;stroke:#A5A5A5;stroke-width:8.4114;stroke-miterlimit:10;}
	.st10{fill:none;stroke:#56514C;stroke-width:16.865;stroke-miterlimit:10;}
	.st11{fill:#302F2E;}
	.st12{fill:none;stroke:#302F2E;stroke-width:0.2924;stroke-miterlimit:10;}
	.st13{fill:#A5A5A5;}
	.st14{fill:none;stroke:#A5A5A5;stroke-width:5.8477;stroke-miterlimit:10;}
	.st15{fill:none;stroke:#E2DEDC;stroke-width:4;stroke-miterlimit:10;}
	.st16{fill:#E5E1DF;}
	.st17{fill:none;stroke:#E5E1DF;stroke-width:1.81;stroke-miterlimit:10;}
	.st18{fill:none;stroke:#A5A5A5;stroke-width:4.1279;stroke-miterlimit:10;}
	.st19{fill:none;stroke:#E5E1DF;stroke-width:1.0583;stroke-miterlimit:10;}
	.st20{fill:none;stroke:#4C4C4C;stroke-width:5.8762;stroke-miterlimit:10;}
</style>
<g id="RightAntenna">
	<line class="st0" x1="912.9" y1="356.5" x2="991.6" y2="248.3"/>
	<circle class="st1" cx="991.8" cy="248.8" r="2.5"/>
</g>
<g id="LeftAntenna">
	<line class="st0" x1="913" y1="357.5" x2="834.3" y2="249.3"/>
	<circle class="st1" cx="833.8" cy="248.8" r="2.5"/>
</g>
<path class="st2" d="M993,989.3l54.6,96.2c1.5,2.6-0.6,5.8-3.8,5.8h-34.6c-1.3,0-2.6-0.6-3.4-1.5L922.5,989L993,989.3z"/>
<path class="st3" d="M993,989.3l54.6,96.2c1.5,2.6-0.6,5.8-3.8,5.8h-34.6c-1.3,0-2.6-0.6-3.4-1.5L922.5,989L993,989.3z"/>
<path class="st2" d="M259.9,989.3l-54.6,96.2c-1.5,2.6,0.6,5.8,3.8,5.8h34.6c1.3,0,2.6-0.6,3.4-1.5l83.5-100.7L259.9,989.3z"/>
<path class="st3" d="M259.9,989.3l-54.6,96.2c-1.5,2.6,0.6,5.8,3.8,5.8h34.6c1.3,0,2.6-0.6,3.4-1.5l83.5-100.7L259.9,989.3z"/>
<path class="st4" d="M201.5,945.4l11.7,29.4c3.3,8.2,11.2,13.6,20,13.6h789.6c8.8,0,16.8-5.4,20-13.6l11.7-29.4H201.5z"/>
<path class="st5" d="M201.5,945.4l11.7,29.4c3.3,8.2,11.2,13.6,20,13.6h789.6c8.8,0,16.8-5.4,20-13.6l11.7-29.4H201.5z"/>
<path class="st6" d="M129.5,362.7v565.7c0,9.2,7.5,16.6,16.6,16.6h965.7c9.2,0,16.6-7.5,16.6-16.6V362.7c0-9.2-7.5-16.6-16.6-16.6
	H146.1C137,346,129.5,353.5,129.5,362.7z M887.8,873.3c-0.8,9.2-8,17.1-15.9,17.4c-225.4,9.1-451.7,9.1-677.1,0
	c-8-0.3-15.2-8.2-15.9-17.4c-11.1-151.7-11.1-304.7,0-456.4c0.8-9.2,8-17.1,15.9-17.4c225.4-9.1,451.7-9.1,677.1,0
	c8,0.3,15.2,8.2,15.9,17.4C898.8,568.6,898.8,721.7,887.8,873.3z"/>
<path class="st7" d="M129.5,362.7v565.7c0,9.2,7.5,16.6,16.6,16.6h965.7c9.2,0,16.6-7.5,16.6-16.6V362.7c0-9.2-7.5-16.6-16.6-16.6
	H146.1C137,346,129.5,353.5,129.5,362.7z M887.8,873.3c-0.8,9.2-8,17.1-15.9,17.4c-225.4,9.1-451.7,9.1-677.1,0
	c-8-0.3-15.2-8.2-15.9-17.4c-11.1-151.7-11.1-304.7,0-456.4c0.8-9.2,8-17.1,15.9-17.4c225.4-9.1,451.7-9.1,677.1,0
	c8,0.3,15.2,8.2,15.9,17.4C898.8,568.6,898.8,721.7,887.8,873.3z"/>
<path class="st8" d="M948.6,398.2h152.8c2.2,0,4,19.1,4,42.6v311.5c0,23.6-1.8,42.6-4,42.6H948.6c-2.2,0-4-19.1-4-42.6V440.8
	C944.6,417.3,946.4,398.2,948.6,398.2z"/>
<path class="st9" d="M948.6,398.2h152.8c2.2,0,4,19.1,4,42.6v311.5c0,23.6-1.8,42.6-4,42.6H948.6c-2.2,0-4-19.1-4-42.6V440.8
	C944.6,417.3,946.4,398.2,948.6,398.2z"/>
<path class="st10" d="M865.6,891.4c-221.2,9.1-443.3,9.1-664.5,0c-7.8-0.3-14.9-8.2-15.6-17.5c-10.9-152-10.9-305.3,0-457.3
	c0.8-9.3,7.8-17.1,15.6-17.5c221.2-9.1,443.3-9.1,664.5,0c7.8,0.3,14.9,8.2,15.6,17.5c10.9,152,10.9,305.3,0,457.3
	C880.4,883.2,873.4,891.1,865.6,891.4z"/>
<circle class="st11" cx="955.6" cy="835.3" r="2.5"/>
<circle class="st12" cx="955.6" cy="835.3" r="2.5"/>
<circle class="st11" cx="965.6" cy="835.3" r="2.5"/>
<circle class="st12" cx="965.6" cy="835.3" r="2.5"/>
<circle class="st11" cx="975.6" cy="835.3" r="2.5"/>
<circle class="st12" cx="975.6" cy="835.3" r="2.5"/>
<circle class="st11" cx="985.6" cy="835.3" r="2.5"/>
<circle class="st12" cx="985.6" cy="835.3" r="2.5"/>
<circle class="st11" cx="995.6" cy="835.3" r="2.5"/>
<circle class="st12" cx="995.6" cy="835.3" r="2.5"/>
<circle class="st11" cx="1005.6" cy="835.3" r="2.5"/>
<circle class="st12" cx="1005.6" cy="835.3" r="2.5"/>
<circle class="st11" cx="1015.6" cy="835.3" r="2.5"/>
<circle class="st12" cx="1015.6" cy="835.3" r="2.5"/>
<circle class="st11" cx="1025.6" cy="835.3" r="2.5"/>
<circle class="st12" cx="1025.6" cy="835.3" r="2.5"/>
<circle class="st11" cx="1035.6" cy="835.3" r="2.5"/>
<circle class="st12" cx="1035.6" cy="835.3" r="2.5"/>
<circle class="st11" cx="1045.6" cy="835.3" r="2.5"/>
<circle class="st12" cx="1045.6" cy="835.3" r="2.5"/>
<circle class="st11" cx="1055.6" cy="835.3" r="2.5"/>
<circle class="st12" cx="1055.6" cy="835.3" r="2.5"/>
<circle class="st11" cx="1065.6" cy="835.3" r="2.5"/>
<circle class="st12" cx="1065.6" cy="835.3" r="2.5"/>
<circle class="st11" cx="1075.6" cy="835.3" r="2.5"/>
<circle class="st12" cx="1075.6" cy="835.3" r="2.5"/>
<circle class="st11" cx="955.6" cy="845.3" r="2.5"/>
<circle class="st12" cx="955.6" cy="845.3" r="2.5"/>
<circle class="st11" cx="965.6" cy="845.3" r="2.5"/>
<circle class="st12" cx="965.6" cy="845.3" r="2.5"/>
<circle class="st11" cx="975.6" cy="845.3" r="2.5"/>
<circle class="st12" cx="975.6" cy="845.3" r="2.5"/>
<circle class="st11" cx="985.6" cy="845.3" r="2.5"/>
<circle class="st12" cx="985.6" cy="845.3" r="2.5"/>
<circle class="st11" cx="995.6" cy="845.3" r="2.5"/>
<circle class="st12" cx="995.6" cy="845.3" r="2.5"/>
<circle class="st11" cx="1005.6" cy="845.3" r="2.5"/>
<circle class="st12" cx="1005.6" cy="845.3" r="2.5"/>
<circle class="st11" cx="1015.6" cy="845.3" r="2.5"/>
<circle class="st12" cx="1015.6" cy="845.3" r="2.5"/>
<circle class="st11" cx="1025.6" cy="845.3" r="2.5"/>
<circle class="st12" cx="1025.6" cy="845.3" r="2.5"/>
<circle class="st11" cx="1035.6" cy="845.3" r="2.5"/>
<circle class="st12" cx="1035.6" cy="845.3" r="2.5"/>
<circle class="st11" cx="1045.6" cy="845.3" r="2.5"/>
<circle class="st12" cx="1045.6" cy="845.3" r="2.5"/>
<circle class="st11" cx="1055.6" cy="845.3" r="2.5"/>
<circle class="st12" cx="1055.6" cy="845.3" r="2.5"/>
<circle class="st11" cx="1065.6" cy="845.3" r="2.5"/>
<circle class="st12" cx="1065.6" cy="845.3" r="2.5"/>
<circle class="st11" cx="1075.6" cy="845.3" r="2.5"/>
<circle class="st12" cx="1075.6" cy="845.3" r="2.5"/>
<circle class="st11" cx="955.6" cy="855.3" r="2.5"/>
<circle class="st12" cx="955.6" cy="855.3" r="2.5"/>
<circle class="st11" cx="965.6" cy="855.3" r="2.5"/>
<circle class="st12" cx="965.6" cy="855.3" r="2.5"/>
<circle class="st11" cx="975.6" cy="855.3" r="2.5"/>
<circle class="st12" cx="975.6" cy="855.3" r="2.5"/>
<circle class="st11" cx="985.6" cy="855.3" r="2.5"/>
<circle class="st12" cx="985.6" cy="855.3" r="2.5"/>
<circle class="st11" cx="995.6" cy="855.3" r="2.5"/>
<circle class="st12" cx="995.6" cy="855.3" r="2.5"/>
<circle class="st11" cx="1005.6" cy="855.3" r="2.5"/>
<circle class="st12" cx="1005.6" cy="855.3" r="2.5"/>
<circle class="st11" cx="1015.6" cy="855.3" r="2.5"/>
<circle class="st12" cx="1015.6" cy="855.3" r="2.5"/>
<circle class="st11" cx="1025.6" cy="855.3" r="2.5"/>
<circle class="st12" cx="1025.6" cy="855.3" r="2.5"/>
<circle class="st11" cx="1035.6" cy="855.3" r="2.5"/>
<circle class="st12" cx="1035.6" cy="855.3" r="2.5"/>
<circle class="st11" cx="1045.6" cy="855.3" r="2.5"/>
<circle class="st12" cx="1045.6" cy="855.3" r="2.5"/>
<circle class="st11" cx="1055.6" cy="855.3" r="2.5"/>
<circle class="st12" cx="1055.6" cy="855.3" r="2.5"/>
<circle class="st11" cx="1065.6" cy="855.3" r="2.5"/>
<circle class="st12" cx="1065.6" cy="855.3" r="2.5"/>
<circle class="st11" cx="1075.6" cy="855.3" r="2.5"/>
<circle class="st12" cx="1075.6" cy="855.3" r="2.5"/>
<circle class="st11" cx="955.6" cy="865.3" r="2.5"/>
<circle class="st12" cx="955.6" cy="865.3" r="2.5"/>
<circle class="st11" cx="965.6" cy="865.3" r="2.5"/>
<circle class="st12" cx="965.6" cy="865.3" r="2.5"/>
<circle class="st11" cx="975.6" cy="865.3" r="2.5"/>
<circle class="st12" cx="975.6" cy="865.3" r="2.5"/>
<circle class="st11" cx="985.6" cy="865.3" r="2.5"/>
<circle class="st12" cx="985.6" cy="865.3" r="2.5"/>
<circle class="st11" cx="995.6" cy="865.3" r="2.5"/>
<circle class="st12" cx="995.6" cy="865.3" r="2.5"/>
<circle class="st11" cx="1005.6" cy="865.3" r="2.5"/>
<circle class="st12" cx="1005.6" cy="865.3" r="2.5"/>
<circle class="st11" cx="1015.6" cy="865.3" r="2.5"/>
<circle class="st12" cx="1015.6" cy="865.3" r="2.5"/>
<circle class="st11" cx="1025.6" cy="865.3" r="2.5"/>
<circle class="st12" cx="1025.6" cy="865.3" r="2.5"/>
<circle class="st11" cx="1035.6" cy="865.3" r="2.5"/>
<circle class="st12" cx="1035.6" cy="865.3" r="2.5"/>
<circle class="st11" cx="1045.6" cy="865.3" r="2.5"/>
<circle class="st12" cx="1045.6" cy="865.3" r="2.5"/>
<circle class="st11" cx="1055.6" cy="865.3" r="2.5"/>
<circle class="st12" cx="1055.6" cy="865.3" r="2.5"/>
<circle class="st11" cx="1065.6" cy="865.3" r="2.5"/>
<circle class="st12" cx="1065.6" cy="865.3" r="2.5"/>
<circle class="st11" cx="1075.6" cy="865.3" r="2.5"/>
<circle class="st12" cx="1075.6" cy="865.3" r="2.5"/>
<circle class="st11" cx="955.6" cy="875.3" r="2.5"/>
<circle class="st12" cx="955.6" cy="875.3" r="2.5"/>
<circle class="st11" cx="965.6" cy="875.3" r="2.5"/>
<circle class="st12" cx="965.6" cy="875.3" r="2.5"/>
<circle class="st11" cx="975.6" cy="875.3" r="2.5"/>
<circle class="st12" cx="975.6" cy="875.3" r="2.5"/>
<circle class="st11" cx="985.6" cy="875.3" r="2.5"/>
<circle class="st12" cx="985.6" cy="875.3" r="2.5"/>
<circle class="st11" cx="995.6" cy="875.3" r="2.5"/>
<circle class="st12" cx="995.6" cy="875.3" r="2.5"/>
<circle class="st11" cx="1005.6" cy="875.3" r="2.5"/>
<circle class="st12" cx="1005.6" cy="875.3" r="2.5"/>
<circle class="st11" cx="1015.6" cy="875.3" r="2.5"/>
<circle class="st12" cx="1015.6" cy="875.3" r="2.5"/>
<circle class="st11" cx="1025.6" cy="875.3" r="2.5"/>
<circle class="st12" cx="1025.6" cy="875.3" r="2.5"/>
<circle class="st11" cx="1035.6" cy="875.3" r="2.5"/>
<circle class="st12" cx="1035.6" cy="875.3" r="2.5"/>
<circle class="st11" cx="1045.6" cy="875.3" r="2.5"/>
<circle class="st12" cx="1045.6" cy="875.3" r="2.5"/>
<circle class="st11" cx="1055.6" cy="875.3" r="2.5"/>
<circle class="st12" cx="1055.6" cy="875.3" r="2.5"/>
<circle class="st11" cx="1065.6" cy="875.3" r="2.5"/>
<circle class="st12" cx="1065.6" cy="875.3" r="2.5"/>
<circle class="st11" cx="1075.6" cy="875.3" r="2.5"/>
<circle class="st12" cx="1075.6" cy="875.3" r="2.5"/>
<circle class="st11" cx="955.6" cy="885.3" r="2.5"/>
<circle class="st12" cx="955.6" cy="885.3" r="2.5"/>
<circle class="st11" cx="965.6" cy="885.3" r="2.5"/>
<circle class="st12" cx="965.6" cy="885.3" r="2.5"/>
<circle class="st11" cx="975.6" cy="885.3" r="2.5"/>
<circle class="st12" cx="975.6" cy="885.3" r="2.5"/>
<circle class="st11" cx="985.6" cy="885.3" r="2.5"/>
<circle class="st12" cx="985.6" cy="885.3" r="2.5"/>
<circle class="st11" cx="995.6" cy="885.3" r="2.5"/>
<circle class="st12" cx="995.6" cy="885.3" r="2.5"/>
<circle class="st11" cx="1005.6" cy="885.3" r="2.5"/>
<circle class="st12" cx="1005.6" cy="885.3" r="2.5"/>
<circle class="st11" cx="1015.6" cy="885.3" r="2.5"/>
<circle class="st12" cx="1015.6" cy="885.3" r="2.5"/>
<circle class="st11" cx="1025.6" cy="885.3" r="2.5"/>
<circle class="st12" cx="1025.6" cy="885.3" r="2.5"/>
<circle class="st11" cx="1035.6" cy="885.3" r="2.5"/>
<circle class="st12" cx="1035.6" cy="885.3" r="2.5"/>
<circle class="st11" cx="1045.6" cy="885.3" r="2.5"/>
<circle class="st12" cx="1045.6" cy="885.3" r="2.5"/>
<circle class="st11" cx="1055.6" cy="885.3" r="2.5"/>
<circle class="st12" cx="1055.6" cy="885.3" r="2.5"/>
<circle class="st11" cx="1065.6" cy="885.3" r="2.5"/>
<circle class="st12" cx="1065.6" cy="885.3" r="2.5"/>
<circle class="st11" cx="1075.6" cy="885.3" r="2.5"/>
<circle class="st12" cx="1075.6" cy="885.3" r="2.5"/>
<circle class="st11" cx="955.6" cy="895.3" r="2.5"/>
<circle class="st12" cx="955.6" cy="895.3" r="2.5"/>
<circle class="st11" cx="965.6" cy="895.3" r="2.5"/>
<circle class="st12" cx="965.6" cy="895.3" r="2.5"/>
<circle class="st11" cx="975.6" cy="895.3" r="2.5"/>
<circle class="st12" cx="975.6" cy="895.3" r="2.5"/>
<circle class="st11" cx="985.6" cy="895.3" r="2.5"/>
<circle class="st12" cx="985.6" cy="895.3" r="2.5"/>
<circle class="st11" cx="995.6" cy="895.3" r="2.5"/>
<circle class="st12" cx="995.6" cy="895.3" r="2.5"/>
<circle class="st11" cx="1005.6" cy="895.3" r="2.5"/>
<circle class="st12" cx="1005.6" cy="895.3" r="2.5"/>
<circle class="st11" cx="1015.6" cy="895.3" r="2.5"/>
<circle class="st12" cx="1015.6" cy="895.3" r="2.5"/>
<circle class="st11" cx="1025.6" cy="895.3" r="2.5"/>
<circle class="st12" cx="1025.6" cy="895.3" r="2.5"/>
<circle class="st11" cx="1035.6" cy="895.3" r="2.5"/>
<circle class="st12" cx="1035.6" cy="895.3" r="2.5"/>
<circle class="st11" cx="1045.6" cy="895.3" r="2.5"/>
<circle class="st12" cx="1045.6" cy="895.3" r="2.5"/>
<circle class="st11" cx="1055.6" cy="895.3" r="2.5"/>
<circle class="st12" cx="1055.6" cy="895.3" r="2.5"/>
<circle class="st11" cx="1065.6" cy="895.3" r="2.5"/>
<circle class="st12" cx="1065.6" cy="895.3" r="2.5"/>
<circle class="st11" cx="1075.6" cy="895.3" r="2.5"/>
<circle class="st12" cx="1075.6" cy="895.3" r="2.5"/>
<circle class="st11" cx="955.6" cy="905.3" r="2.5"/>
<circle class="st12" cx="955.6" cy="905.3" r="2.5"/>
<circle class="st11" cx="965.6" cy="905.3" r="2.5"/>
<circle class="st12" cx="965.6" cy="905.3" r="2.5"/>
<circle class="st11" cx="975.6" cy="905.3" r="2.5"/>
<circle class="st12" cx="975.6" cy="905.3" r="2.5"/>
<circle class="st11" cx="985.6" cy="905.3" r="2.5"/>
<circle class="st12" cx="985.6" cy="905.3" r="2.5"/>
<circle class="st11" cx="995.6" cy="905.3" r="2.5"/>
<circle class="st12" cx="995.6" cy="905.3" r="2.5"/>
<circle class="st11" cx="1005.6" cy="905.3" r="2.5"/>
<circle class="st12" cx="1005.6" cy="905.3" r="2.5"/>
<circle class="st11" cx="1015.6" cy="905.3" r="2.5"/>
<circle class="st12" cx="1015.6" cy="905.3" r="2.5"/>
<circle class="st11" cx="1025.6" cy="905.3" r="2.5"/>
<circle class="st12" cx="1025.6" cy="905.3" r="2.5"/>
<circle class="st11" cx="1035.6" cy="905.3" r="2.5"/>
<circle class="st12" cx="1035.6" cy="905.3" r="2.5"/>
<circle class="st11" cx="1045.6" cy="905.3" r="2.5"/>
<circle class="st12" cx="1045.6" cy="905.3" r="2.5"/>
<circle class="st11" cx="1055.6" cy="905.3" r="2.5"/>
<circle class="st12" cx="1055.6" cy="905.3" r="2.5"/>
<circle class="st11" cx="1065.6" cy="905.3" r="2.5"/>
<circle class="st12" cx="1065.6" cy="905.3" r="2.5"/>
<circle class="st11" cx="1075.6" cy="905.3" r="2.5"/>
<circle class="st12" cx="1075.6" cy="905.3" r="2.5"/>
<circle class="st11" cx="1085.6" cy="835.3" r="2.5"/>
<circle class="st12" cx="1085.6" cy="835.3" r="2.5"/>
<circle class="st11" cx="1085.6" cy="845.3" r="2.5"/>
<circle class="st12" cx="1085.6" cy="845.3" r="2.5"/>
<circle class="st11" cx="1085.6" cy="855.3" r="2.5"/>
<circle class="st12" cx="1085.6" cy="855.3" r="2.5"/>
<circle class="st11" cx="1085.6" cy="865.3" r="2.5"/>
<circle class="st12" cx="1085.6" cy="865.3" r="2.5"/>
<circle class="st11" cx="1085.6" cy="875.3" r="2.5"/>
<circle class="st12" cx="1085.6" cy="875.3" r="2.5"/>
<circle class="st11" cx="1085.6" cy="885.3" r="2.5"/>
<circle class="st12" cx="1085.6" cy="885.3" r="2.5"/>
<circle class="st11" cx="1085.6" cy="895.3" r="2.5"/>
<circle class="st12" cx="1085.6" cy="895.3" r="2.5"/>
<circle class="st11" cx="1085.6" cy="905.3" r="2.5"/>
<circle class="st12" cx="1085.6" cy="905.3" r="2.5"/>
<circle class="st11" cx="1095.6" cy="835.3" r="2.5"/>
<circle class="st12" cx="1095.6" cy="835.3" r="2.5"/>
<circle class="st11" cx="1095.6" cy="845.3" r="2.5"/>
<circle class="st12" cx="1095.6" cy="845.3" r="2.5"/>
<circle class="st11" cx="1095.6" cy="855.3" r="2.5"/>
<circle class="st12" cx="1095.6" cy="855.3" r="2.5"/>
<circle class="st11" cx="1095.6" cy="865.3" r="2.5"/>
<circle class="st12" cx="1095.6" cy="865.3" r="2.5"/>
<circle class="st11" cx="1095.6" cy="875.3" r="2.5"/>
<circle class="st12" cx="1095.6" cy="875.3" r="2.5"/>
<circle class="st11" cx="1095.6" cy="885.3" r="2.5"/>
<circle class="st12" cx="1095.6" cy="885.3" r="2.5"/>
<circle class="st11" cx="1095.6" cy="895.3" r="2.5"/>
<circle class="st12" cx="1095.6" cy="895.3" r="2.5"/>
<circle class="st11" cx="1095.6" cy="905.3" r="2.5"/>
<circle class="st12" cx="1095.6" cy="905.3" r="2.5"/>
<g id="UpperKnob">
	<circle class="st13" cx="1025.2" cy="487.8" r="58.5"/>
	<circle class="st14" cx="1025.2" cy="487.8" r="58.5"/>
	<circle class="st11" cx="1025.2" cy="487.8" r="49.6"/>
	<circle class="st15" cx="1025.2" cy="487.8" r="49.6"/>
	<path class="st16" d="M1062,471.1c0.2,0.2,0.1,0.5-0.1,0.7l-63,46.6c-0.2,0.2-0.5,0.1-0.7-0.1l-9.4-12.8c-0.2-0.2-0.1-0.5,0.1-0.7
		l63-46.6c0.2-0.2,0.5-0.1,0.7,0.1L1062,471.1z"/>
	<path class="st17" d="M1062,471.1c0.2,0.2,0.1,0.5-0.1,0.7l-63,46.6c-0.2,0.2-0.5,0.1-0.7-0.1l-9.4-12.8c-0.2-0.2-0.1-0.5,0.1-0.7
		l63-46.6c0.2-0.2,0.5-0.1,0.7,0.1L1062,471.1z"/>
</g>
<g id="LowerKnob">
	<circle class="st13" cx="1025.2" cy="618.8" r="41.3"/>
	<circle class="st18" cx="1025.2" cy="618.8" r="41.3"/>
	<circle class="st11" cx="1025.2" cy="618.8" r="31.3"/>
	<circle class="st15" cx="1025.2" cy="618.8" r="31.3"/>
	<path class="st16" d="M1015.5,596.3c0.2-0.2,0.5-0.1,0.7,0.1l26,39.4c0.2,0.2,0.1,0.5-0.1,0.7l-7.1,4.7c-0.2,0.2-0.5,0.1-0.7-0.1
		l-26-39.4c-0.2-0.2-0.1-0.5,0.1-0.7L1015.5,596.3z"/>
	<path class="st19" d="M1015.5,596.3c0.2-0.2,0.5-0.1,0.7,0.1l26,39.4c0.2,0.2,0.1,0.5-0.1,0.7l-7.1,4.7c-0.2,0.2-0.5,0.1-0.7-0.1
		l-26-39.4c-0.2-0.2-0.1-0.5,0.1-0.7L1015.5,596.3z"/>
</g>
<circle class="st13" cx="983.7" cy="748.3" r="8.9"/>
<circle class="st18" cx="983.7" cy="748.3" r="8.9"/>
<ellipse class="st20" cx="983.7" cy="748.3" rx="3" ry="2.9"/>
<circle class="st16" cx="984.1" cy="748" r="2.5"/>
<circle class="st19" cx="984.1" cy="748" r="2.5"/>
<circle class="st13" cx="1011.7" cy="748.3" r="8.9"/>
<circle class="st18" cx="1011.7" cy="748.3" r="8.9"/>
<ellipse class="st20" cx="1011.7" cy="748.3" rx="3" ry="2.9"/>
<circle class="st16" cx="1012.1" cy="748" r="2.5"/>
<circle class="st19" cx="1012.1" cy="748" r="2.5"/>
<circle class="st13" cx="1039.7" cy="748.3" r="8.9"/>
<circle class="st18" cx="1039.7" cy="748.3" r="8.9"/>
<ellipse class="st20" cx="1039.7" cy="748.3" rx="3" ry="2.9"/>
<circle class="st16" cx="1040.1" cy="748" r="2.5"/>
<circle class="st19" cx="1040.1" cy="748" r="2.5"/>
<circle class="st13" cx="1067.7" cy="748.3" r="8.9"/>
<circle class="st18" cx="1067.7" cy="748.3" r="8.9"/>
<ellipse class="st20" cx="1067.7" cy="748.3" rx="3" ry="2.9"/>
<circle class="st16" cx="1068.1" cy="748" r="2.5"/>
<circle class="st19" cx="1068.1" cy="748" r="2.5"/>
</svg>
