<?xml version="1.0" encoding="utf-8"?>
<!-- Generator: Adobe Illustrator 19.1.0, SVG Export Plug-In . SVG Version: 6.00 Build 0)  -->
<!DOCTYPE svg PUBLIC "-//W3C//DTD SVG 1.1//EN" "http://www.w3.org/Graphics/SVG/1.1/DTD/svg11.dtd">
<svg version="1.1" id="Layer_1" xmlns="http://www.w3.org/2000/svg" xmlns:xlink="http://www.w3.org/1999/xlink" x="0px" y="0px"
	 viewBox="127 237.3 1003.9 861.7" style="enable-background:new 127 237.3 1003.9 861.7;" xml:space="preserve">
<style type="text/css">
	.st0{fill:none;stroke:#C6C3C1;stroke-width:5;stroke-miterlimit:10;}
	.st1{fill:#C6C3C1;stroke:#C6C3C1;stroke-width:7;stroke-miterlimit:10;}
	.st2{fill:#E9C382;}
	.st3{fill:none;stroke:#E9C382;stroke-width:3.8324;stroke-miterlimit:10;}
	.st4{fill:#DB9F45;}
	.st5{fill:none;stroke:#DB9F45;stroke-width:5;stroke-miterlimit:10;}
	.st6{fill:#C45852;}
	.st7{fill:none;stroke:#C45852;stroke-width:5;stroke-miterlimit:10;}
	.st8{fill:#CCCACA;}
	.st9{fill:none;stroke:#A5A5A5;stroke-width:8.4114;stroke-miterlimit:10;}
	.st10{fill:none;stroke:#56514C;stroke-width:16.865;stroke-miterlimit:10;}
	.st11{fill:#302F2E;}
	.st12{fill:none;stroke:#302F2E;stroke-width:0.2924;stroke-miterlimit:10;}
	.st13{fill:#A5A5A5;}
	.st14{fill:none;stroke:#A5A5A5;stroke-width:5.8477;stroke-miterlimit:10;}
	.st15{fill:#4C4C4C;}
	.st16{fill:none;stroke:#E2DEDC;stroke-width:4;stroke-miterlimit:10;}
	.st17{fill:#E5E1DF;}
	.st18{fill:none;stroke:#E5E1DF;stroke-width:1.81;stroke-miterlimit:10;}
	.st19{fill:none;stroke:#A5A5A5;stroke-width:4.6704;stroke-miterlimit:10;}
	.st20{fill:none;stroke:#E2DEDC;stroke-width:4.5257;stroke-miterlimit:10;}
	.st21{fill:none;stroke:#E5E1DF;stroke-width:1.1974;stroke-miterlimit:10;}
	.st22{fill:none;stroke:#A5A5A5;stroke-width:4.1279;stroke-miterlimit:10;}
	.st23{fill:none;stroke:#4C4C4C;stroke-width:7.8728;stroke-miterlimit:10;}
	.st24{fill:none;stroke:#E5E1DF;stroke-width:1.5111;stroke-miterlimit:10;}
	.st25{fill:none;stroke:#4C4C4C;stroke-width:7.9044;stroke-miterlimit:10;}
	.st26{fill:none;stroke:#E5E1DF;stroke-width:1.4393;stroke-miterlimit:10;}
	.st27{fill:#4C4C4C;stroke:#4C4C4C;stroke-width:3.1319;stroke-miterlimit:10;}
	.st28{fill:#4C4C4C;stroke:#4C4C4C;stroke-width:0.7751;stroke-miterlimit:10;}
	.st29{fill:#4C4C4C;stroke:#4C4C4C;stroke-width:2.6302;stroke-miterlimit:10;}
	.st30{fill:#E5E1DF;stroke:#4C4C4C;stroke-width:5.1192;stroke-miterlimit:10;}
	.st31{fill:#A5A5A5;stroke:#A5A5A5;stroke-width:3.6157;stroke-miterlimit:10;}
	.st32{fill:#E5E1DF;stroke:#E5E1DF;stroke-width:1.3351;stroke-miterlimit:10;}
	.st33{fill:none;stroke:#E5E1DF;stroke-width:1.4485;stroke-miterlimit:10;}
	.st34{fill:#4C4C4C;stroke:#4C4C4C;stroke-width:0.3505;stroke-miterlimit:10;}
	.st35{fill:none;stroke:#4C4C4C;stroke-width:1.3111;stroke-miterlimit:10;}
</style>
<g id="RightAntenna">
	<line class="st0" x1="912.9" y1="363.2" x2="991.6" y2="255"/>
	<circle class="st1" cx="991.8" cy="255.5" r="2.5"/>
</g>
<g id="LeftAntenna">
	<line class="st0" x1="913" y1="364.2" x2="834.3" y2="256"/>
	<circle class="st1" cx="833.8" cy="255.5" r="2.5"/>
</g>
<path class="st2" d="M993,995l54.6,96.2c1.5,2.6-0.6,5.8-3.8,5.8h-34.6c-1.3,0-2.6-0.6-3.4-1.5l-83.3-100.8L993,995z"/>
<path class="st3" d="M993,995l54.6,96.2c1.5,2.6-0.6,5.8-3.8,5.8h-34.6c-1.3,0-2.6-0.6-3.4-1.5l-83.3-100.8L993,995z"/>
<path class="st2" d="M259.9,995l-54.6,96.2c-1.5,2.6,0.6,5.8,3.8,5.8h34.6c1.3,0,2.6-0.6,3.4-1.5l83.5-100.7L259.9,995z"/>
<path class="st3" d="M259.9,995l-54.6,96.2c-1.5,2.6,0.6,5.8,3.8,5.8h34.6c1.3,0,2.6-0.6,3.4-1.5l83.5-100.7L259.9,995z"/>
<path class="st4" d="M201.5,951.1l11.7,29.4c3.3,8.2,11.2,13.6,20,13.6h789.6c8.8,0,16.8-5.4,20-13.6l11.7-29.4H201.5z"/>
<path class="st5" d="M201.5,951.1l11.7,29.4c3.3,8.2,11.2,13.6,20,13.6h789.6c8.8,0,16.8-5.4,20-13.6l11.7-29.4H201.5z"/>
<path class="st6" d="M129.5,369.4v565.7c0,9.2,7.5,16.6,16.6,16.6h965.7c9.2,0,16.6-7.5,16.6-16.6V369.4c0-9.2-7.5-16.6-16.6-16.6
	H146.1C137,352.7,129.5,360.2,129.5,369.4z M887.8,880c-0.8,9.2-8,17.1-15.9,17.4c-225.4,9.1-451.7,9.1-677.1,0
	c-8-0.3-15.2-8.2-15.9-17.4c-11.1-151.7-11.1-304.7,0-456.4c0.8-9.2,8-17.1,15.9-17.4c225.4-9.1,451.7-9.1,677.1,0
	c8,0.3,15.2,8.2,15.9,17.4C898.8,575.3,898.8,728.4,887.8,880z"/>
<path class="st7" d="M129.5,368.4v565.7c0,9.2,7.5,16.6,16.6,16.6h965.7c9.2,0,16.6-7.5,16.6-16.6V368.4c0-9.2-7.5-16.6-16.6-16.6
	H146.1C137,351.7,129.5,359.2,129.5,368.4z M887.8,879c-0.8,9.2-8,17.1-15.9,17.4c-225.4,9.1-451.7,9.1-677.1,0
	c-8-0.3-15.2-8.2-15.9-17.4c-11.1-151.7-11.1-304.7,0-456.4c0.8-9.2,8-17.1,15.9-17.4c225.4-9.1,451.7-9.1,677.1,0
	c8,0.3,15.2,8.2,15.9,17.4C898.8,574.3,898.8,727.4,887.8,879z"/>
<path class="st8" d="M948.6,404.9h152.8c2.2,0,4,19.1,4,42.6V759c0,23.6-1.8,42.6-4,42.6H948.6c-2.2,0-4-19.1-4-42.6V447.5
	C944.6,424,946.4,404.9,948.6,404.9z"/>
<path class="st9" d="M948.6,403.9h152.8c2.2,0,4,19.1,4,42.6V758c0,23.6-1.8,42.6-4,42.6H948.6c-2.2,0-4-19.1-4-42.6V446.5
	C944.6,423,946.4,403.9,948.6,403.9z"/>
<path class="st10" d="M865.6,897.1c-221.2,9.1-443.3,9.1-664.5,0c-7.8-0.3-14.9-8.2-15.6-17.5c-10.9-152-10.9-305.3,0-457.3
	c0.8-9.3,7.8-17.1,15.6-17.5c221.2-9.1,443.3-9.1,664.5,0c7.8,0.3,14.9,8.2,15.6,17.5c10.9,152,10.9,305.3,0,457.3
	C880.4,888.9,873.4,896.8,865.6,897.1z"/>
<circle class="st11" cx="955.6" cy="841" r="2.5"/>
<circle class="st12" cx="955.6" cy="841" r="2.5"/>
<circle class="st11" cx="965.6" cy="841" r="2.5"/>
<circle class="st12" cx="965.6" cy="841" r="2.5"/>
<circle class="st11" cx="975.6" cy="841" r="2.5"/>
<circle class="st12" cx="975.6" cy="841" r="2.5"/>
<circle class="st11" cx="985.6" cy="841" r="2.5"/>
<circle class="st12" cx="985.6" cy="841" r="2.5"/>
<circle class="st11" cx="995.6" cy="841" r="2.5"/>
<circle class="st12" cx="995.6" cy="841" r="2.5"/>
<circle class="st11" cx="1005.6" cy="841" r="2.5"/>
<circle class="st12" cx="1005.6" cy="841" r="2.5"/>
<circle class="st11" cx="1015.6" cy="841" r="2.5"/>
<circle class="st12" cx="1015.6" cy="841" r="2.5"/>
<circle class="st11" cx="1025.6" cy="841" r="2.5"/>
<circle class="st12" cx="1025.6" cy="841" r="2.5"/>
<circle class="st11" cx="1035.6" cy="841" r="2.5"/>
<circle class="st12" cx="1035.6" cy="841" r="2.5"/>
<circle class="st11" cx="1045.6" cy="841" r="2.5"/>
<circle class="st12" cx="1045.6" cy="841" r="2.5"/>
<circle class="st11" cx="1055.6" cy="841" r="2.5"/>
<circle class="st12" cx="1055.6" cy="841" r="2.5"/>
<circle class="st11" cx="1065.6" cy="842" r="2.5"/>
<circle class="st12" cx="1065.6" cy="842" r="2.5"/>
<circle class="st11" cx="1075.6" cy="842" r="2.5"/>
<circle class="st12" cx="1075.6" cy="842" r="2.5"/>
<circle class="st11" cx="955.6" cy="851" r="2.5"/>
<circle class="st12" cx="955.6" cy="851" r="2.5"/>
<circle class="st11" cx="965.6" cy="851" r="2.5"/>
<circle class="st12" cx="965.6" cy="851" r="2.5"/>
<circle class="st11" cx="975.6" cy="851" r="2.5"/>
<circle class="st12" cx="975.6" cy="851" r="2.5"/>
<circle class="st11" cx="985.6" cy="851" r="2.5"/>
<circle class="st12" cx="985.6" cy="851" r="2.5"/>
<circle class="st11" cx="995.6" cy="851" r="2.5"/>
<circle class="st12" cx="995.6" cy="851" r="2.5"/>
<circle class="st11" cx="1005.6" cy="851" r="2.5"/>
<circle class="st12" cx="1005.6" cy="851" r="2.5"/>
<circle class="st11" cx="1015.6" cy="851" r="2.5"/>
<circle class="st12" cx="1015.6" cy="851" r="2.5"/>
<circle class="st11" cx="1025.6" cy="851" r="2.5"/>
<circle class="st12" cx="1025.6" cy="851" r="2.5"/>
<circle class="st11" cx="1035.6" cy="851" r="2.5"/>
<circle class="st12" cx="1035.6" cy="851" r="2.5"/>
<circle class="st11" cx="1045.6" cy="851" r="2.5"/>
<circle class="st12" cx="1045.6" cy="851" r="2.5"/>
<circle class="st11" cx="1055.6" cy="851" r="2.5"/>
<circle class="st12" cx="1055.6" cy="851" r="2.5"/>
<circle class="st11" cx="1065.6" cy="852" r="2.5"/>
<circle class="st12" cx="1065.6" cy="852" r="2.5"/>
<circle class="st11" cx="1075.6" cy="852" r="2.5"/>
<circle class="st12" cx="1075.6" cy="852" r="2.5"/>
<circle class="st11" cx="955.6" cy="861" r="2.5"/>
<circle class="st12" cx="955.6" cy="861" r="2.5"/>
<circle class="st11" cx="965.6" cy="861" r="2.5"/>
<circle class="st12" cx="965.6" cy="861" r="2.5"/>
<circle class="st11" cx="975.6" cy="861" r="2.5"/>
<circle class="st12" cx="975.6" cy="861" r="2.5"/>
<circle class="st11" cx="985.6" cy="861" r="2.5"/>
<circle class="st12" cx="985.6" cy="861" r="2.5"/>
<circle class="st11" cx="995.6" cy="861" r="2.5"/>
<circle class="st12" cx="995.6" cy="861" r="2.5"/>
<circle class="st11" cx="1005.6" cy="861" r="2.5"/>
<circle class="st12" cx="1005.6" cy="861" r="2.5"/>
<circle class="st11" cx="1015.6" cy="861" r="2.5"/>
<circle class="st12" cx="1015.6" cy="861" r="2.5"/>
<circle class="st11" cx="1025.6" cy="861" r="2.5"/>
<circle class="st12" cx="1025.6" cy="861" r="2.5"/>
<circle class="st11" cx="1035.6" cy="861" r="2.5"/>
<circle class="st12" cx="1035.6" cy="861" r="2.5"/>
<circle class="st11" cx="1045.6" cy="861" r="2.5"/>
<circle class="st12" cx="1045.6" cy="861" r="2.5"/>
<circle class="st11" cx="1055.6" cy="861" r="2.5"/>
<circle class="st12" cx="1055.6" cy="861" r="2.5"/>
<circle class="st11" cx="1065.6" cy="862" r="2.5"/>
<circle class="st12" cx="1065.6" cy="862" r="2.5"/>
<circle class="st11" cx="1075.6" cy="862" r="2.5"/>
<circle class="st12" cx="1075.6" cy="862" r="2.5"/>
<circle class="st11" cx="955.6" cy="871" r="2.5"/>
<circle class="st12" cx="955.6" cy="871" r="2.5"/>
<circle class="st11" cx="965.6" cy="871" r="2.5"/>
<circle class="st12" cx="965.6" cy="871" r="2.5"/>
<circle class="st11" cx="975.6" cy="871" r="2.5"/>
<circle class="st12" cx="975.6" cy="871" r="2.5"/>
<circle class="st11" cx="985.6" cy="871" r="2.5"/>
<circle class="st12" cx="985.6" cy="871" r="2.5"/>
<circle class="st11" cx="995.6" cy="871" r="2.5"/>
<circle class="st12" cx="995.6" cy="871" r="2.5"/>
<circle class="st11" cx="1005.6" cy="871" r="2.5"/>
<circle class="st12" cx="1005.6" cy="871" r="2.5"/>
<circle class="st11" cx="1015.6" cy="871" r="2.5"/>
<circle class="st12" cx="1015.6" cy="871" r="2.5"/>
<circle class="st11" cx="1025.6" cy="871" r="2.5"/>
<circle class="st12" cx="1025.6" cy="871" r="2.5"/>
<circle class="st11" cx="1035.6" cy="871" r="2.5"/>
<circle class="st12" cx="1035.6" cy="871" r="2.5"/>
<circle class="st11" cx="1045.6" cy="871" r="2.5"/>
<circle class="st12" cx="1045.6" cy="871" r="2.5"/>
<circle class="st11" cx="1055.6" cy="871" r="2.5"/>
<circle class="st12" cx="1055.6" cy="871" r="2.5"/>
<circle class="st11" cx="1065.6" cy="872" r="2.5"/>
<circle class="st12" cx="1065.6" cy="872" r="2.5"/>
<circle class="st11" cx="1075.6" cy="872" r="2.5"/>
<circle class="st12" cx="1075.6" cy="872" r="2.5"/>
<circle class="st11" cx="955.6" cy="881" r="2.5"/>
<circle class="st12" cx="955.6" cy="881" r="2.5"/>
<circle class="st11" cx="965.6" cy="881" r="2.5"/>
<circle class="st12" cx="965.6" cy="881" r="2.5"/>
<circle class="st11" cx="975.6" cy="881" r="2.5"/>
<circle class="st12" cx="975.6" cy="881" r="2.5"/>
<circle class="st11" cx="985.6" cy="881" r="2.5"/>
<circle class="st12" cx="985.6" cy="881" r="2.5"/>
<circle class="st11" cx="995.6" cy="881" r="2.5"/>
<circle class="st12" cx="995.6" cy="881" r="2.5"/>
<circle class="st11" cx="1005.6" cy="881" r="2.5"/>
<circle class="st12" cx="1005.6" cy="881" r="2.5"/>
<circle class="st11" cx="1015.6" cy="881" r="2.5"/>
<circle class="st12" cx="1015.6" cy="881" r="2.5"/>
<circle class="st11" cx="1025.6" cy="881" r="2.5"/>
<circle class="st12" cx="1025.6" cy="881" r="2.5"/>
<circle class="st11" cx="1035.6" cy="881" r="2.5"/>
<circle class="st12" cx="1035.6" cy="881" r="2.5"/>
<circle class="st11" cx="1045.6" cy="881" r="2.5"/>
<circle class="st12" cx="1045.6" cy="881" r="2.5"/>
<circle class="st11" cx="1055.6" cy="881" r="2.5"/>
<circle class="st12" cx="1055.6" cy="881" r="2.5"/>
<circle class="st11" cx="1065.6" cy="882" r="2.5"/>
<circle class="st12" cx="1065.6" cy="882" r="2.5"/>
<circle class="st11" cx="1075.6" cy="882" r="2.5"/>
<circle class="st12" cx="1075.6" cy="882" r="2.5"/>
<circle class="st11" cx="955.6" cy="891" r="2.5"/>
<circle class="st12" cx="955.6" cy="891" r="2.5"/>
<circle class="st11" cx="965.6" cy="891" r="2.5"/>
<circle class="st12" cx="965.6" cy="891" r="2.5"/>
<circle class="st11" cx="975.6" cy="891" r="2.5"/>
<circle class="st12" cx="975.6" cy="891" r="2.5"/>
<circle class="st11" cx="985.6" cy="891" r="2.5"/>
<circle class="st12" cx="985.6" cy="891" r="2.5"/>
<circle class="st11" cx="995.6" cy="891" r="2.5"/>
<circle class="st12" cx="995.6" cy="891" r="2.5"/>
<circle class="st11" cx="1005.6" cy="891" r="2.5"/>
<circle class="st12" cx="1005.6" cy="891" r="2.5"/>
<circle class="st11" cx="1015.6" cy="891" r="2.5"/>
<circle class="st12" cx="1015.6" cy="891" r="2.5"/>
<circle class="st11" cx="1025.6" cy="891" r="2.5"/>
<circle class="st12" cx="1025.6" cy="891" r="2.5"/>
<circle class="st11" cx="1035.6" cy="891" r="2.5"/>
<circle class="st12" cx="1035.6" cy="891" r="2.5"/>
<circle class="st11" cx="1045.6" cy="891" r="2.5"/>
<circle class="st12" cx="1045.6" cy="891" r="2.5"/>
<circle class="st11" cx="1055.6" cy="891" r="2.5"/>
<circle class="st12" cx="1055.6" cy="891" r="2.5"/>
<circle class="st11" cx="1065.6" cy="892" r="2.5"/>
<circle class="st12" cx="1065.6" cy="892" r="2.5"/>
<circle class="st11" cx="1075.6" cy="892" r="2.5"/>
<circle class="st12" cx="1075.6" cy="892" r="2.5"/>
<circle class="st11" cx="955.6" cy="901" r="2.5"/>
<circle class="st12" cx="955.6" cy="901" r="2.5"/>
<circle class="st11" cx="965.6" cy="901" r="2.5"/>
<circle class="st12" cx="965.6" cy="901" r="2.5"/>
<circle class="st11" cx="975.6" cy="901" r="2.5"/>
<circle class="st12" cx="975.6" cy="901" r="2.5"/>
<circle class="st11" cx="985.6" cy="901" r="2.5"/>
<circle class="st12" cx="985.6" cy="901" r="2.5"/>
<circle class="st11" cx="995.6" cy="901" r="2.5"/>
<circle class="st12" cx="995.6" cy="901" r="2.5"/>
<circle class="st11" cx="1005.6" cy="901" r="2.5"/>
<circle class="st12" cx="1005.6" cy="901" r="2.5"/>
<circle class="st11" cx="1015.6" cy="901" r="2.5"/>
<circle class="st12" cx="1015.6" cy="901" r="2.5"/>
<circle class="st11" cx="1025.6" cy="901" r="2.5"/>
<circle class="st12" cx="1025.6" cy="901" r="2.5"/>
<circle class="st11" cx="1035.6" cy="901" r="2.5"/>
<circle class="st12" cx="1035.6" cy="901" r="2.5"/>
<circle class="st11" cx="1045.6" cy="901" r="2.5"/>
<circle class="st12" cx="1045.6" cy="901" r="2.5"/>
<circle class="st11" cx="1055.6" cy="901" r="2.5"/>
<circle class="st12" cx="1055.6" cy="901" r="2.5"/>
<circle class="st11" cx="1065.6" cy="902" r="2.5"/>
<circle class="st12" cx="1065.6" cy="902" r="2.5"/>
<circle class="st11" cx="1075.6" cy="902" r="2.5"/>
<circle class="st12" cx="1075.6" cy="902" r="2.5"/>
<circle class="st11" cx="955.6" cy="911" r="2.5"/>
<circle class="st12" cx="955.6" cy="911" r="2.5"/>
<circle class="st11" cx="965.6" cy="911" r="2.5"/>
<circle class="st12" cx="965.6" cy="911" r="2.5"/>
<circle class="st11" cx="975.6" cy="911" r="2.5"/>
<circle class="st12" cx="975.6" cy="911" r="2.5"/>
<circle class="st11" cx="985.6" cy="911" r="2.5"/>
<circle class="st12" cx="985.6" cy="911" r="2.5"/>
<circle class="st11" cx="995.6" cy="911" r="2.5"/>
<circle class="st12" cx="995.6" cy="911" r="2.5"/>
<circle class="st11" cx="1005.6" cy="911" r="2.5"/>
<circle class="st12" cx="1005.6" cy="911" r="2.5"/>
<circle class="st11" cx="1015.6" cy="911" r="2.5"/>
<circle class="st12" cx="1015.6" cy="911" r="2.5"/>
<circle class="st11" cx="1025.6" cy="911" r="2.5"/>
<circle class="st12" cx="1025.6" cy="911" r="2.5"/>
<circle class="st11" cx="1035.6" cy="911" r="2.5"/>
<circle class="st12" cx="1035.6" cy="911" r="2.5"/>
<circle class="st11" cx="1045.6" cy="911" r="2.5"/>
<circle class="st12" cx="1045.6" cy="911" r="2.5"/>
<circle class="st11" cx="1055.6" cy="911" r="2.5"/>
<circle class="st12" cx="1055.6" cy="911" r="2.5"/>
<circle class="st11" cx="1065.6" cy="912" r="2.5"/>
<circle class="st12" cx="1065.6" cy="912" r="2.5"/>
<circle class="st11" cx="1075.6" cy="912" r="2.5"/>
<circle class="st12" cx="1075.6" cy="912" r="2.5"/>
<circle class="st11" cx="1085.6" cy="842" r="2.5"/>
<circle class="st12" cx="1085.6" cy="842" r="2.5"/>
<circle class="st11" cx="1085.6" cy="852" r="2.5"/>
<circle class="st12" cx="1085.6" cy="852" r="2.5"/>
<circle class="st11" cx="1085.6" cy="862" r="2.5"/>
<circle class="st12" cx="1085.6" cy="862" r="2.5"/>
<circle class="st11" cx="1085.6" cy="872" r="2.5"/>
<circle class="st12" cx="1085.6" cy="872" r="2.5"/>
<circle class="st11" cx="1085.6" cy="882" r="2.5"/>
<circle class="st12" cx="1085.6" cy="882" r="2.5"/>
<circle class="st11" cx="1085.6" cy="892" r="2.5"/>
<circle class="st12" cx="1085.6" cy="892" r="2.5"/>
<circle class="st11" cx="1085.6" cy="902" r="2.5"/>
<circle class="st12" cx="1085.6" cy="902" r="2.5"/>
<circle class="st11" cx="1085.6" cy="912" r="2.5"/>
<circle class="st12" cx="1085.6" cy="912" r="2.5"/>
<circle class="st11" cx="1095.6" cy="842" r="2.5"/>
<circle class="st12" cx="1095.6" cy="842" r="2.5"/>
<circle class="st11" cx="1095.6" cy="852" r="2.5"/>
<circle class="st12" cx="1095.6" cy="852" r="2.5"/>
<circle class="st11" cx="1095.6" cy="862" r="2.5"/>
<circle class="st12" cx="1095.6" cy="862" r="2.5"/>
<circle class="st11" cx="1095.6" cy="872" r="2.5"/>
<circle class="st12" cx="1095.6" cy="872" r="2.5"/>
<circle class="st11" cx="1095.6" cy="882" r="2.5"/>
<circle class="st12" cx="1095.6" cy="882" r="2.5"/>
<circle class="st11" cx="1095.6" cy="892" r="2.5"/>
<circle class="st12" cx="1095.6" cy="892" r="2.5"/>
<circle class="st11" cx="1095.6" cy="902" r="2.5"/>
<circle class="st12" cx="1095.6" cy="902" r="2.5"/>
<circle class="st11" cx="1095.6" cy="912" r="2.5"/>
<circle class="st12" cx="1095.6" cy="912" r="2.5"/>
<g id="UpperKnob">
	<circle class="st13" cx="1025.2" cy="493.6" r="58.5"/>
	<circle class="st14" cx="1025.2" cy="493.6" r="58.5"/>
	<circle class="st15" cx="1025.2" cy="493.6" r="49.6"/>
	<circle class="st16" cx="1025.2" cy="493.6" r="49.6"/>
	<path class="st17" d="M1062,476.9c0.2,0.2,0.1,0.5-0.1,0.7l-63,46.6c-0.2,0.2-0.5,0.1-0.7-0.1l-9.4-12.8c-0.2-0.2-0.1-0.5,0.1-0.7
		l63-46.6c0.2-0.2,0.5-0.1,0.7,0.1L1062,476.9z"/>
	<path class="st18" d="M1062,476.9c0.2,0.2,0.1,0.5-0.1,0.7l-63,46.6c-0.2,0.2-0.5,0.1-0.7-0.1l-9.4-12.8c-0.2-0.2-0.1-0.5,0.1-0.7
		l63-46.6c0.2-0.2,0.5-0.1,0.7,0.1L1062,476.9z"/>
</g>
<g id="LowerKnob">
	<circle class="st13" cx="1025.6" cy="635.3" r="46.7"/>
	<circle class="st19" cx="1025.6" cy="635.3" r="46.7"/>
	<circle class="st15" cx="1025.6" cy="635.3" r="35.4"/>
	<circle class="st20" cx="1025.6" cy="635.3" r="35.4"/>
	<path class="st17" d="M1014.6,609.9c0.2-0.2,0.6-0.1,0.8,0.1l29.4,44.6c0.2,0.2,0.1,0.6-0.1,0.8l-8,5.3c-0.2,0.2-0.6,0.1-0.8-0.1
		l-29.4-44.6c-0.2-0.2-0.1-0.6,0.1-0.8L1014.6,609.9z"/>
	<path class="st21" d="M1014.6,609.9c0.2-0.2,0.6-0.1,0.8,0.1l29.4,44.6c0.2,0.2,0.1,0.6-0.1,0.8l-8,5.3c-0.2,0.2-0.6,0.1-0.8-0.1
		l-29.4-44.6c-0.2-0.2-0.1-0.6,0.1-0.8L1014.6,609.9z"/>
</g>
<circle class="st13" cx="983" cy="718.1" r="8.9"/>
<circle class="st22" cx="983" cy="718.1" r="8.9"/>
<ellipse class="st23" cx="983" cy="718.1" rx="4" ry="3.9"/>
<g id="PlayButton">
	<circle class="st17" cx="983" cy="718.1" r="3.6"/>
	<circle class="st24" cx="983" cy="718.1" r="3.6"/>
</g>
<circle class="st13" cx="1011" cy="718.1" r="8.9"/>
<circle class="st22" cx="1011" cy="718.1" r="8.9"/>
<ellipse class="st25" cx="1011" cy="718.1" rx="4.1" ry="3.9"/>
<g id="PauseButton">
	<circle class="st17" cx="1011" cy="718.1" r="3.6"/>
	<circle class="st24" cx="1011" cy="718.1" r="3.6"/>
</g>
<circle class="st13" cx="1039" cy="718.1" r="8.9"/>
<circle class="st22" cx="1039" cy="718.1" r="8.9"/>
<ellipse class="st23" cx="1039" cy="718.1" rx="4" ry="3.9"/>
<g id="VolumeDown">
	<circle class="st17" cx="1039" cy="718.1" r="3.4"/>
	<circle class="st26" cx="1039" cy="718.1" r="3.4"/>
</g>
<polygon class="st27" points="980.5,743 984.9,745.2 980.5,747.4 "/>
<g>
	<path class="st28" d="M1009.1,749.9h-1.8c-0.1,0-0.1-0.1-0.1-0.1v-9.1c0-0.1,0.1-0.1,0.1-0.1h1.8c0.1,0,0.1,0.1,0.1,0.1v9.1
		C1009.2,749.8,1009.2,749.9,1009.1,749.9z"/>
	<path class="st28" d="M1015.4,749.9h-1.8c-0.1,0-0.1-0.1-0.1-0.1v-9.1c0-0.1,0.1-0.1,0.1-0.1h1.8c0.1,0,0.1,0.1,0.1,0.1v9.1
		C1015.5,749.8,1015.5,749.9,1015.4,749.9z"/>
</g>
<g>
	<path class="st29" d="M965.3,596.3c0,0.8-0.6,1.5-1.4,2.1c-0.8,0.5-1.8,0.9-2.7,0.9c-0.6,0-1.1-0.2-1.5-0.4
		c-0.4-0.3-0.6-0.7-0.6-1.1c0-0.7,0.6-1.5,1.3-2c0.8-0.6,1.7-0.9,2.5-0.9c0.7,0,1.3,0.1,1.7,0.4v-13.9h0.5V596.3z"/>
	<polygon class="st29" points="964.7,580.2 964.7,581.3 977,579 977,577.9 	"/>
	<path class="st29" d="M977,594.1c0,0.8-0.6,1.5-1.4,2.1c-0.8,0.5-1.8,0.9-2.7,0.9c-0.6,0-1.1-0.2-1.5-0.4c-0.4-0.3-0.6-0.7-0.6-1.1
		c0-0.7,0.6-1.5,1.3-2c0.8-0.6,1.7-0.9,2.5-0.9c0.7,0,1.3,0.1,1.7,0.4V579h0.5V594.1z"/>
</g>
<g>
	<polygon class="st30" points="975.2,423.3 981.7,427.4 975.2,431.4 	"/>
	<polygon class="st30" points="966.7,423.3 960.2,427.4 966.7,431.4 	"/>
</g>
<path class="st31" d="M1082.1,779.7H969.2c-0.8,0-1.5-0.7-1.5-1.5v-9.3c0-0.8,0.7-1.5,1.5-1.5h112.9c0.8,0,1.5,0.7,1.5,1.5v9.3
	C1083.6,779,1082.9,779.7,1082.1,779.7z"/>
<path class="st15" d="M1081.3,778.7H970.4c-0.5,0-0.8-0.4-0.8-0.8v-8.2c0-0.5,0.4-0.8,0.8-0.8h110.8c0.5,0,0.8,0.4,0.8,0.8v8.2
	C1082.1,778.3,1081.7,778.7,1081.3,778.7z"/>
<path id="TrackSlider" class="st32" d="M984.9,785.3h-3.1c-0.5,0-1-0.4-1-1v-21.4c0-0.5,0.4-1,1-1h3.1c0.5,0,1,0.4,1,1v21.4
	C985.9,784.8,985.4,785.3,984.9,785.3z"/>
<circle class="st13" cx="1067" cy="718.1" r="8.9"/>
<circle class="st22" cx="1067" cy="718.1" r="8.9"/>
<ellipse class="st23" cx="1067" cy="718.1" rx="4" ry="3.9"/>
<g id="VolumeUp">
	<circle class="st17" cx="1067" cy="718.1" r="3.4"/>
	<circle class="st33" cx="1067" cy="718.1" r="3.4"/>
</g>
<g>
	<path class="st34" d="M1059.2,744v2.7c0,0.1,0.1,0.2,0.2,0.2h1.7c0,0,0.1,0,0.1,0l4.8,4.2c0.1,0.1,0.3,0,0.3-0.1v-11.7
		c0-0.2-0.2-0.2-0.3-0.1l-4.7,4.6c0,0-0.1,0.1-0.1,0.1l-1.7,0C1059.3,743.9,1059.2,743.9,1059.2,744z"/>
	<path class="st35" d="M1068.5,743.4c0.8,0.1,1.3,1,1.2,1.9c0,0.9-0.6,1.6-1.4,1.6"/>
	<path class="st35" d="M1070,742.2c1.3,0.3,2.2,1.6,2.1,3.1c-0.1,1.5-1.1,2.6-2.3,2.8"/>
	<path class="st35" d="M1071,740.2c2.2,0.4,3.7,2.8,3.6,5.3c-0.1,2.5-1.8,4.5-3.9,4.7"/>
</g>
<g>
	<path class="st34" d="M1032.7,744.1v2.7c0,0.1,0.1,0.2,0.2,0.2h1.7c0,0,0.1,0,0.1,0l4.8,4.2c0.1,0.1,0.3,0,0.3-0.1v-11.7
		c0-0.2-0.2-0.2-0.3-0.1l-4.7,4.6c0,0-0.1,0.1-0.1,0.1l-1.7,0C1032.8,743.9,1032.7,744,1032.7,744.1z"/>
	<path class="st35" d="M1042,743.4c0.8,0.1,1.3,1,1.2,1.9c0,0.9-0.6,1.6-1.4,1.6"/>
</g>
</svg>
