<?xml version="1.0" encoding="utf-8"?>
<!-- Generator: Adobe Illustrator 19.1.0, SVG Export Plug-In . SVG Version: 6.00 Build 0)  -->
<!DOCTYPE svg PUBLIC "-//W3C//DTD SVG 1.1//EN" "http://www.w3.org/Graphics/SVG/1.1/DTD/svg11.dtd">
<svg version="1.1" id="Layer_1" xmlns="http://www.w3.org/2000/svg" xmlns:xlink="http://www.w3.org/1999/xlink" x="0px" y="0px"
	 viewBox="127 237.3 1003.9 861.7" style="enable-background:new 127 237.3 1003.9 861.7;" xml:space="preserve">
<style type="text/css">
	.st0{fill:none;stroke:#C6C3C1;stroke-width:5;stroke-miterlimit:10;}
	.st1{fill:#C6C3C1;stroke:#C6C3C1;stroke-width:7;stroke-miterlimit:10;}
	.st2{fill:#E9C382;}
	.st3{fill:none;stroke:#E9C382;stroke-width:3.8324;stroke-miterlimit:10;}
	.st4{fill:#DB9F45;}
	.st5{fill:none;stroke:#DB9F45;stroke-width:5;stroke-miterlimit:10;}
	.st6{fill:#C45852;}
	.st7{fill:none;stroke:#C45852;stroke-width:5;stroke-miterlimit:10;}
	.st8{fill:#CCCACA;}
	.st9{fill:none;stroke:#A5A5A5;stroke-width:8.4114;stroke-miterlimit:10;}
	.st10{fill:none;stroke:#56514C;stroke-width:16.865;stroke-miterlimit:10;}
	.st11{fill:#302F2E;}
	.st12{fill:none;stroke:#302F2E;stroke-width:0.2924;stroke-miterlimit:10;}
	.st13{fill:#A5A5A5;}
	.st14{fill:none;stroke:#A5A5A5;stroke-width:5.8477;stroke-miterlimit:10;}
	.st15{fill:#4C4C4C;}
	.st16{fill:none;stroke:#E2DEDC;stroke-width:4;stroke-miterlimit:10;}
	.st17{fill:#E5E1DF;}
	.st18{fill:none;stroke:#E5E1DF;stroke-width:1.81;stroke-miterlimit:10;}
	.st19{fill:none;stroke:#A5A5A5;stroke-width:4.4507;stroke-miterlimit:10;}
	.st20{fill:none;stroke:#E2DEDC;stroke-width:4.5257;stroke-miterlimit:10;}
	.st21{fill:none;stroke:#E5E1DF;stroke-width:1.1974;stroke-miterlimit:10;}
	.st22{fill:#E5E1DF;stroke:#4C4C4C;stroke-width:5.1192;stroke-miterlimit:10;}
	.st23{fill:#A5A5A5;stroke:#A5A5A5;stroke-width:5.5444;stroke-miterlimit:10;}
	.st24{fill:none;stroke:#E5E1DF;stroke-width:4.3368;stroke-miterlimit:10;}
	.st25{fill:#4C4C4C;stroke:#4C4C4C;stroke-width:2.7879;stroke-miterlimit:10;}
	.st26{fill:#4C4C4C;stroke:#E5E1DF;stroke-width:3.0489;stroke-miterlimit:10;}
	.st27{fill:#E5E1DF;stroke:#E5E1DF;stroke-width:0.8153;stroke-miterlimit:10;}
	.st28{fill:#E5E1DF;stroke:#E5E1DF;stroke-width:0.3618;stroke-miterlimit:10;}
	.st29{fill:none;stroke:#E5E1DF;stroke-width:1.2644;stroke-miterlimit:10;}
	.st30{fill:none;stroke:#E5E1DF;stroke-width:0.9936;stroke-miterlimit:10;}
	.st31{fill:none;stroke:#E5E1DF;stroke-width:1.4556;stroke-miterlimit:10;}
	.st32{opacity:0.19;fill:#444444;stroke:#444444;stroke-miterlimit:10;}
	.st33{opacity:0.19;fill:#444444;stroke:#444444;stroke-width:1.0021;stroke-miterlimit:10;}
</style>
<g id="RightAntenna">
	<line class="st0" x1="912.9" y1="363.2" x2="991.6" y2="255"/>
	<circle class="st1" cx="991.8" cy="255.5" r="2.5"/>
</g>
<g id="LeftAntenna">
	<line class="st0" x1="913" y1="364.2" x2="834.3" y2="256"/>
	<circle class="st1" cx="833.8" cy="255.5" r="2.5"/>
</g>
<path class="st2" d="M993,995l54.6,96.2c1.5,2.6-0.6,5.8-3.8,5.8h-34.6c-1.3,0-2.6-0.6-3.4-1.5l-83.3-100.8L993,995z"/>
<path class="st3" d="M993,995l54.6,96.2c1.5,2.6-0.6,5.8-3.8,5.8h-34.6c-1.3,0-2.6-0.6-3.4-1.5l-83.3-100.8L993,995z"/>
<path class="st2" d="M259.9,995l-54.6,96.2c-1.5,2.6,0.6,5.8,3.8,5.8h34.6c1.3,0,2.6-0.6,3.4-1.5l83.5-100.7L259.9,995z"/>
<path class="st3" d="M259.9,995l-54.6,96.2c-1.5,2.6,0.6,5.8,3.8,5.8h34.6c1.3,0,2.6-0.6,3.4-1.5l83.5-100.7L259.9,995z"/>
<path class="st4" d="M201.5,951.1l11.7,29.4c3.3,8.2,11.2,13.6,20,13.6h789.6c8.8,0,16.8-5.4,20-13.6l11.7-29.4H201.5z"/>
<path class="st5" d="M201.5,951.1l11.7,29.4c3.3,8.2,11.2,13.6,20,13.6h789.6c8.8,0,16.8-5.4,20-13.6l11.7-29.4H201.5z"/>
<g id="TVFrame">
	<path class="st6" d="M129.5,369.4v565.7c0,9.2,7.5,16.6,16.6,16.6h965.7c9.2,0,16.6-7.5,16.6-16.6V369.4c0-9.2-7.5-16.6-16.6-16.6
		H146.1C137,352.7,129.5,360.2,129.5,369.4z M887.8,880c-0.8,9.2-8,17.1-15.9,17.4c-225.4,9.1-451.7,9.1-677.1,0
		c-8-0.3-15.2-8.2-15.9-17.4c-11.1-151.7-11.1-304.7,0-456.4c0.8-9.2,8-17.1,15.9-17.4c225.4-9.1,451.7-9.1,677.1,0
		c8,0.3,15.2,8.2,15.9,17.4C898.8,575.3,898.8,728.4,887.8,880z"/>
	<path class="st7" d="M129.5,368.4v565.7c0,9.2,7.5,16.6,16.6,16.6h965.7c9.2,0,16.6-7.5,16.6-16.6V368.4c0-9.2-7.5-16.6-16.6-16.6
		H146.1C137,351.7,129.5,359.2,129.5,368.4z M887.8,879c-0.8,9.2-8,17.1-15.9,17.4c-225.4,9.1-451.7,9.1-677.1,0
		c-8-0.3-15.2-8.2-15.9-17.4c-11.1-151.7-11.1-304.7,0-456.4c0.8-9.2,8-17.1,15.9-17.4c225.4-9.1,451.7-9.1,677.1,0
		c8,0.3,15.2,8.2,15.9,17.4C898.8,574.3,898.8,727.4,887.8,879z"/>
</g>
<path class="st8" d="M948.6,404.9h152.8c2.2,0,4,19.1,4,42.6V759c0,23.6-1.8,42.6-4,42.6H948.6c-2.2,0-4-19.1-4-42.6V447.5
	C944.6,424,946.4,404.9,948.6,404.9z"/>
<path class="st9" d="M948.6,403.9h152.8c2.2,0,4,19.1,4,42.6V758c0,23.6-1.8,42.6-4,42.6H948.6c-2.2,0-4-19.1-4-42.6V446.5
	C944.6,423,946.4,403.9,948.6,403.9z"/>
<path id="InnerFrame" class="st10" d="M865.6,897.1c-221.2,9.1-443.3,9.1-664.5,0c-7.8-0.3-14.9-8.2-15.6-17.5
	c-10.9-152-10.9-305.3,0-457.3c0.8-9.3,7.8-17.1,15.6-17.5c221.2-9.1,443.3-9.1,664.5,0c7.8,0.3,14.9,8.2,15.6,17.5
	c10.9,152,10.9,305.3,0,457.3C880.4,888.9,873.4,896.8,865.6,897.1z"/>
<g id="Speaker">
	<circle class="st11" cx="955.6" cy="841" r="2.5"/>
	<circle class="st12" cx="955.6" cy="841" r="2.5"/>
	<circle class="st11" cx="965.6" cy="841" r="2.5"/>
	<circle class="st12" cx="965.6" cy="841" r="2.5"/>
	<circle class="st11" cx="975.6" cy="841" r="2.5"/>
	<circle class="st12" cx="975.6" cy="841" r="2.5"/>
	<circle class="st11" cx="985.6" cy="841" r="2.5"/>
	<circle class="st12" cx="985.6" cy="841" r="2.5"/>
	<circle class="st11" cx="995.6" cy="841" r="2.5"/>
	<circle class="st12" cx="995.6" cy="841" r="2.5"/>
	<circle class="st11" cx="1005.6" cy="841" r="2.5"/>
	<circle class="st12" cx="1005.6" cy="841" r="2.5"/>
	<circle class="st11" cx="1015.6" cy="841" r="2.5"/>
	<circle class="st12" cx="1015.6" cy="841" r="2.5"/>
	<circle class="st11" cx="1025.6" cy="841" r="2.5"/>
	<circle class="st12" cx="1025.6" cy="841" r="2.5"/>
	<circle class="st11" cx="1035.6" cy="841" r="2.5"/>
	<circle class="st12" cx="1035.6" cy="841" r="2.5"/>
	<circle class="st11" cx="1045.6" cy="841" r="2.5"/>
	<circle class="st12" cx="1045.6" cy="841" r="2.5"/>
	<circle class="st11" cx="1055.6" cy="841" r="2.5"/>
	<circle class="st12" cx="1055.6" cy="841" r="2.5"/>
	<circle class="st11" cx="1065.6" cy="841" r="2.5"/>
	<circle class="st12" cx="1065.6" cy="841" r="2.5"/>
	<circle class="st11" cx="1075.6" cy="841" r="2.5"/>
	<circle class="st12" cx="1075.6" cy="841" r="2.5"/>
	<circle class="st11" cx="955.6" cy="851" r="2.5"/>
	<circle class="st12" cx="955.6" cy="851" r="2.5"/>
	<circle class="st11" cx="965.6" cy="851" r="2.5"/>
	<circle class="st12" cx="965.6" cy="851" r="2.5"/>
	<circle class="st11" cx="975.6" cy="851" r="2.5"/>
	<circle class="st12" cx="975.6" cy="851" r="2.5"/>
	<circle class="st11" cx="985.6" cy="851" r="2.5"/>
	<circle class="st12" cx="985.6" cy="851" r="2.5"/>
	<circle class="st11" cx="995.6" cy="851" r="2.5"/>
	<circle class="st12" cx="995.6" cy="851" r="2.5"/>
	<circle class="st11" cx="1005.6" cy="851" r="2.5"/>
	<circle class="st12" cx="1005.6" cy="851" r="2.5"/>
	<circle class="st11" cx="1015.6" cy="851" r="2.5"/>
	<circle class="st12" cx="1015.6" cy="851" r="2.5"/>
	<circle class="st11" cx="1025.6" cy="851" r="2.5"/>
	<circle class="st12" cx="1025.6" cy="851" r="2.5"/>
	<circle class="st11" cx="1035.6" cy="851" r="2.5"/>
	<circle class="st12" cx="1035.6" cy="851" r="2.5"/>
	<circle class="st11" cx="1045.6" cy="851" r="2.5"/>
	<circle class="st12" cx="1045.6" cy="851" r="2.5"/>
	<circle class="st11" cx="1055.6" cy="851" r="2.5"/>
	<circle class="st12" cx="1055.6" cy="851" r="2.5"/>
	<circle class="st11" cx="1065.6" cy="851" r="2.5"/>
	<circle class="st12" cx="1065.6" cy="851" r="2.5"/>
	<circle class="st11" cx="1075.6" cy="851" r="2.5"/>
	<circle class="st12" cx="1075.6" cy="851" r="2.5"/>
	<circle class="st11" cx="955.6" cy="861" r="2.5"/>
	<circle class="st12" cx="955.6" cy="861" r="2.5"/>
	<circle class="st11" cx="965.6" cy="861" r="2.5"/>
	<circle class="st12" cx="965.6" cy="861" r="2.5"/>
	<circle class="st11" cx="975.6" cy="861" r="2.5"/>
	<circle class="st12" cx="975.6" cy="861" r="2.5"/>
	<circle class="st11" cx="985.6" cy="861" r="2.5"/>
	<circle class="st12" cx="985.6" cy="861" r="2.5"/>
	<circle class="st11" cx="995.6" cy="861" r="2.5"/>
	<circle class="st12" cx="995.6" cy="861" r="2.5"/>
	<circle class="st11" cx="1005.6" cy="861" r="2.5"/>
	<circle class="st12" cx="1005.6" cy="861" r="2.5"/>
	<circle class="st11" cx="1015.6" cy="861" r="2.5"/>
	<circle class="st12" cx="1015.6" cy="861" r="2.5"/>
	<circle class="st11" cx="1025.6" cy="861" r="2.5"/>
	<circle class="st12" cx="1025.6" cy="861" r="2.5"/>
	<circle class="st11" cx="1035.6" cy="861" r="2.5"/>
	<circle class="st12" cx="1035.6" cy="861" r="2.5"/>
	<circle class="st11" cx="1045.6" cy="861" r="2.5"/>
	<circle class="st12" cx="1045.6" cy="861" r="2.5"/>
	<circle class="st11" cx="1055.6" cy="861" r="2.5"/>
	<circle class="st12" cx="1055.6" cy="861" r="2.5"/>
	<circle class="st11" cx="1065.6" cy="861" r="2.5"/>
	<circle class="st12" cx="1065.6" cy="861" r="2.5"/>
	<circle class="st11" cx="1075.6" cy="861" r="2.5"/>
	<circle class="st12" cx="1075.6" cy="861" r="2.5"/>
	<circle class="st11" cx="955.6" cy="871" r="2.5"/>
	<circle class="st12" cx="955.6" cy="871" r="2.5"/>
	<circle class="st11" cx="965.6" cy="871" r="2.5"/>
	<circle class="st12" cx="965.6" cy="871" r="2.5"/>
	<circle class="st11" cx="975.6" cy="871" r="2.5"/>
	<circle class="st12" cx="975.6" cy="871" r="2.5"/>
	<circle class="st11" cx="985.6" cy="871" r="2.5"/>
	<circle class="st12" cx="985.6" cy="871" r="2.5"/>
	<circle class="st11" cx="995.6" cy="871" r="2.5"/>
	<circle class="st12" cx="995.6" cy="871" r="2.5"/>
	<circle class="st11" cx="1005.6" cy="871" r="2.5"/>
	<circle class="st12" cx="1005.6" cy="871" r="2.5"/>
	<circle class="st11" cx="1015.6" cy="871" r="2.5"/>
	<circle class="st12" cx="1015.6" cy="871" r="2.5"/>
	<circle class="st11" cx="1025.6" cy="871" r="2.5"/>
	<circle class="st12" cx="1025.6" cy="871" r="2.5"/>
	<circle class="st11" cx="1035.6" cy="871" r="2.5"/>
	<circle class="st12" cx="1035.6" cy="871" r="2.5"/>
	<circle class="st11" cx="1045.6" cy="871" r="2.5"/>
	<circle class="st12" cx="1045.6" cy="871" r="2.5"/>
	<circle class="st11" cx="1055.6" cy="871" r="2.5"/>
	<circle class="st12" cx="1055.6" cy="871" r="2.5"/>
	<circle class="st11" cx="1065.6" cy="871" r="2.5"/>
	<circle class="st12" cx="1065.6" cy="871" r="2.5"/>
	<circle class="st11" cx="1075.6" cy="871" r="2.5"/>
	<circle class="st12" cx="1075.6" cy="871" r="2.5"/>
	<circle class="st11" cx="955.6" cy="881" r="2.5"/>
	<circle class="st12" cx="955.6" cy="881" r="2.5"/>
	<circle class="st11" cx="965.6" cy="881" r="2.5"/>
	<circle class="st12" cx="965.6" cy="881" r="2.5"/>
	<circle class="st11" cx="975.6" cy="881" r="2.5"/>
	<circle class="st12" cx="975.6" cy="881" r="2.5"/>
	<circle class="st11" cx="985.6" cy="881" r="2.5"/>
	<circle class="st12" cx="985.6" cy="881" r="2.5"/>
	<circle class="st11" cx="995.6" cy="881" r="2.5"/>
	<circle class="st12" cx="995.6" cy="881" r="2.5"/>
	<circle class="st11" cx="1005.6" cy="881" r="2.5"/>
	<circle class="st12" cx="1005.6" cy="881" r="2.5"/>
	<circle class="st11" cx="1015.6" cy="881" r="2.5"/>
	<circle class="st12" cx="1015.6" cy="881" r="2.5"/>
	<circle class="st11" cx="1025.6" cy="881" r="2.5"/>
	<circle class="st12" cx="1025.6" cy="881" r="2.5"/>
	<circle class="st11" cx="1035.6" cy="881" r="2.5"/>
	<circle class="st12" cx="1035.6" cy="881" r="2.5"/>
	<circle class="st11" cx="1045.6" cy="881" r="2.5"/>
	<circle class="st12" cx="1045.6" cy="881" r="2.5"/>
	<circle class="st11" cx="1055.6" cy="881" r="2.5"/>
	<circle class="st12" cx="1055.6" cy="881" r="2.5"/>
	<circle class="st11" cx="1065.6" cy="881" r="2.5"/>
	<circle class="st12" cx="1065.6" cy="881" r="2.5"/>
	<circle class="st11" cx="1075.6" cy="881" r="2.5"/>
	<circle class="st12" cx="1075.6" cy="881" r="2.5"/>
	<circle class="st11" cx="955.6" cy="891" r="2.5"/>
	<circle class="st12" cx="955.6" cy="891" r="2.5"/>
	<circle class="st11" cx="965.6" cy="891" r="2.5"/>
	<circle class="st12" cx="965.6" cy="891" r="2.5"/>
	<circle class="st11" cx="975.6" cy="891" r="2.5"/>
	<circle class="st12" cx="975.6" cy="891" r="2.5"/>
	<circle class="st11" cx="985.6" cy="891" r="2.5"/>
	<circle class="st12" cx="985.6" cy="891" r="2.5"/>
	<circle class="st11" cx="995.6" cy="891" r="2.5"/>
	<circle class="st12" cx="995.6" cy="891" r="2.5"/>
	<circle class="st11" cx="1005.6" cy="891" r="2.5"/>
	<circle class="st12" cx="1005.6" cy="891" r="2.5"/>
	<circle class="st11" cx="1015.6" cy="891" r="2.5"/>
	<circle class="st12" cx="1015.6" cy="891" r="2.5"/>
	<circle class="st11" cx="1025.6" cy="891" r="2.5"/>
	<circle class="st12" cx="1025.6" cy="891" r="2.5"/>
	<circle class="st11" cx="1035.6" cy="891" r="2.5"/>
	<circle class="st12" cx="1035.6" cy="891" r="2.5"/>
	<circle class="st11" cx="1045.6" cy="891" r="2.5"/>
	<circle class="st12" cx="1045.6" cy="891" r="2.5"/>
	<circle class="st11" cx="1055.6" cy="891" r="2.5"/>
	<circle class="st12" cx="1055.6" cy="891" r="2.5"/>
	<circle class="st11" cx="1065.6" cy="891" r="2.5"/>
	<circle class="st12" cx="1065.6" cy="891" r="2.5"/>
	<circle class="st11" cx="1075.6" cy="891" r="2.5"/>
	<circle class="st12" cx="1075.6" cy="891" r="2.5"/>
	<circle class="st11" cx="955.6" cy="901" r="2.5"/>
	<circle class="st12" cx="955.6" cy="901" r="2.5"/>
	<circle class="st11" cx="965.6" cy="901" r="2.5"/>
	<circle class="st12" cx="965.6" cy="901" r="2.5"/>
	<circle class="st11" cx="975.6" cy="901" r="2.5"/>
	<circle class="st12" cx="975.6" cy="901" r="2.5"/>
	<circle class="st11" cx="985.6" cy="901" r="2.5"/>
	<circle class="st12" cx="985.6" cy="901" r="2.5"/>
	<circle class="st11" cx="995.6" cy="901" r="2.5"/>
	<circle class="st12" cx="995.6" cy="901" r="2.5"/>
	<circle class="st11" cx="1005.6" cy="901" r="2.5"/>
	<circle class="st12" cx="1005.6" cy="901" r="2.5"/>
	<circle class="st11" cx="1015.6" cy="901" r="2.5"/>
	<circle class="st12" cx="1015.6" cy="901" r="2.5"/>
	<circle class="st11" cx="1025.6" cy="901" r="2.5"/>
	<circle class="st12" cx="1025.6" cy="901" r="2.5"/>
	<circle class="st11" cx="1035.6" cy="901" r="2.5"/>
	<circle class="st12" cx="1035.6" cy="901" r="2.5"/>
	<circle class="st11" cx="1045.6" cy="901" r="2.5"/>
	<circle class="st12" cx="1045.6" cy="901" r="2.5"/>
	<circle class="st11" cx="1055.6" cy="901" r="2.5"/>
	<circle class="st12" cx="1055.6" cy="901" r="2.5"/>
	<circle class="st11" cx="1065.6" cy="901" r="2.5"/>
	<circle class="st12" cx="1065.6" cy="901" r="2.5"/>
	<circle class="st11" cx="1075.6" cy="901" r="2.5"/>
	<circle class="st12" cx="1075.6" cy="901" r="2.5"/>
	<circle class="st11" cx="955.6" cy="911" r="2.5"/>
	<circle class="st12" cx="955.6" cy="911" r="2.5"/>
	<circle class="st11" cx="965.6" cy="911" r="2.5"/>
	<circle class="st12" cx="965.6" cy="911" r="2.5"/>
	<circle class="st11" cx="975.6" cy="911" r="2.5"/>
	<circle class="st12" cx="975.6" cy="911" r="2.5"/>
	<circle class="st11" cx="985.6" cy="911" r="2.5"/>
	<circle class="st12" cx="985.6" cy="911" r="2.5"/>
	<circle class="st11" cx="995.6" cy="911" r="2.5"/>
	<circle class="st12" cx="995.6" cy="911" r="2.5"/>
	<circle class="st11" cx="1005.6" cy="911" r="2.5"/>
	<circle class="st12" cx="1005.6" cy="911" r="2.5"/>
	<circle class="st11" cx="1015.6" cy="911" r="2.5"/>
	<circle class="st12" cx="1015.6" cy="911" r="2.5"/>
	<circle class="st11" cx="1025.6" cy="911" r="2.5"/>
	<circle class="st12" cx="1025.6" cy="911" r="2.5"/>
	<circle class="st11" cx="1035.6" cy="911" r="2.5"/>
	<circle class="st12" cx="1035.6" cy="911" r="2.5"/>
	<circle class="st11" cx="1045.6" cy="911" r="2.5"/>
	<circle class="st12" cx="1045.6" cy="911" r="2.5"/>
	<circle class="st11" cx="1055.6" cy="911" r="2.5"/>
	<circle class="st12" cx="1055.6" cy="911" r="2.5"/>
	<circle class="st11" cx="1065.6" cy="911" r="2.5"/>
	<circle class="st12" cx="1065.6" cy="911" r="2.5"/>
	<circle class="st11" cx="1075.6" cy="911" r="2.5"/>
	<circle class="st12" cx="1075.6" cy="911" r="2.5"/>
	<circle class="st11" cx="1085.6" cy="841" r="2.5"/>
	<circle class="st12" cx="1085.6" cy="841" r="2.5"/>
	<circle class="st11" cx="1085.6" cy="851" r="2.5"/>
	<circle class="st12" cx="1085.6" cy="851" r="2.5"/>
	<circle class="st11" cx="1085.6" cy="861" r="2.5"/>
	<circle class="st12" cx="1085.6" cy="861" r="2.5"/>
	<circle class="st11" cx="1085.6" cy="871" r="2.5"/>
	<circle class="st12" cx="1085.6" cy="871" r="2.5"/>
	<circle class="st11" cx="1085.6" cy="881" r="2.5"/>
	<circle class="st12" cx="1085.6" cy="881" r="2.5"/>
	<circle class="st11" cx="1085.6" cy="891" r="2.5"/>
	<circle class="st12" cx="1085.6" cy="891" r="2.5"/>
	<circle class="st11" cx="1085.6" cy="901" r="2.5"/>
	<circle class="st12" cx="1085.6" cy="901" r="2.5"/>
	<circle class="st11" cx="1085.6" cy="911" r="2.5"/>
	<circle class="st12" cx="1085.6" cy="911" r="2.5"/>
	<circle class="st11" cx="1095.6" cy="841" r="2.5"/>
	<circle class="st12" cx="1095.6" cy="841" r="2.5"/>
	<circle class="st11" cx="1095.6" cy="851" r="2.5"/>
	<circle class="st12" cx="1095.6" cy="851" r="2.5"/>
	<circle class="st11" cx="1095.6" cy="861" r="2.5"/>
	<circle class="st12" cx="1095.6" cy="861" r="2.5"/>
	<circle class="st11" cx="1095.6" cy="871" r="2.5"/>
	<circle class="st12" cx="1095.6" cy="871" r="2.5"/>
	<circle class="st11" cx="1095.6" cy="881" r="2.5"/>
	<circle class="st12" cx="1095.6" cy="881" r="2.5"/>
	<circle class="st11" cx="1095.6" cy="891" r="2.5"/>
	<circle class="st12" cx="1095.6" cy="891" r="2.5"/>
	<circle class="st11" cx="1095.6" cy="901" r="2.5"/>
	<circle class="st12" cx="1095.6" cy="901" r="2.5"/>
	<circle class="st11" cx="1095.6" cy="911" r="2.5"/>
	<circle class="st12" cx="1095.6" cy="911" r="2.5"/>
</g>
<g id="UpperKnob">
	<circle class="st13" cx="1026.6" cy="504.6" r="58.5"/>
	<circle class="st14" cx="1026.6" cy="504.6" r="58.5"/>
	<circle class="st15" cx="1026.6" cy="504.6" r="49.6"/>
	<circle class="st16" cx="1026.6" cy="504.6" r="49.6"/>
	<path class="st17" d="M1063.4,487.9c0.2,0.2,0.1,0.5-0.1,0.7l-63,46.6c-0.2,0.2-0.5,0.1-0.7-0.1l-9.4-12.8
		c-0.2-0.2-0.1-0.5,0.1-0.7l63-46.6c0.2-0.2,0.5-0.1,0.7,0.1L1063.4,487.9z"/>
	<path class="st18" d="M1063.4,487.9c0.2,0.2,0.1,0.5-0.1,0.7l-63,46.6c-0.2,0.2-0.5,0.1-0.7-0.1l-9.4-12.8
		c-0.2-0.2-0.1-0.5,0.1-0.7l63-46.6c0.2-0.2,0.5-0.1,0.7,0.1L1063.4,487.9z"/>
</g>
<g id="LowerKnob">
	<circle class="st13" cx="1026.6" cy="660.3" r="44.5"/>
	<circle class="st19" cx="1026.6" cy="660.3" r="44.5"/>
	<circle class="st15" cx="1026.6" cy="660.3" r="35.4"/>
	<circle class="st20" cx="1026.6" cy="660.3" r="35.4"/>
	<path class="st17" d="M1015.6,634.9c0.2-0.2,0.6-0.1,0.8,0.1l29.4,44.6c0.2,0.2,0.1,0.6-0.1,0.8l-8,5.3c-0.2,0.2-0.6,0.1-0.8-0.1
		l-29.4-44.6c-0.2-0.2-0.1-0.6,0.1-0.8L1015.6,634.9z"/>
	<path class="st21" d="M1015.6,634.9c0.2-0.2,0.6-0.1,0.8,0.1l29.4,44.6c0.2,0.2,0.1,0.6-0.1,0.8l-8,5.3c-0.2,0.2-0.6,0.1-0.8-0.1
		l-29.4-44.6c-0.2-0.2-0.1-0.6,0.1-0.8L1015.6,634.9z"/>
</g>
<g>
	<polygon class="st22" points="977.2,423.3 983.7,427.4 977.2,431.4 	"/>
	<polygon class="st22" points="968.7,423.3 962.2,427.4 968.7,431.4 	"/>
</g>
<g>
	<polygon class="st22" points="974.1,609.8 970,616.3 966,609.8 	"/>
	<polygon class="st22" points="974.1,601.3 970,594.8 966,601.3 	"/>
</g>
<circle class="st23" cx="971.5" cy="756" r="12"/>
<g>
	<circle class="st17" cx="971.3" cy="755.9" r="10.3"/>
	<circle class="st24" cx="971.3" cy="755.9" r="10.3"/>
</g>
<circle class="st23" cx="1007.2" cy="756" r="12"/>
<g>
	<circle class="st17" cx="1007" cy="755.9" r="10.3"/>
	<circle class="st24" cx="1007" cy="755.9" r="10.3"/>
</g>
<circle class="st23" cx="1042.8" cy="756" r="12"/>
<g>
	<circle class="st17" cx="1042.7" cy="755.9" r="10.3"/>
	<circle class="st24" cx="1042.7" cy="755.9" r="10.3"/>
</g>
<circle class="st23" cx="1078.5" cy="756" r="12"/>
<g>
	<circle class="st17" cx="1078.4" cy="755.9" r="10.3"/>
	<circle class="st24" cx="1078.4" cy="755.9" r="10.3"/>
</g>
<g id="PlayButton">
	<g>
		<circle class="st25" cx="971.3" cy="756" r="8.8"/>
		<circle class="st25" cx="971.3" cy="756" r="8.8"/>
	</g>
	<polygon class="st26" points="969.3,753.8 973.6,756 969.3,758.1 	"/>
</g>
<g id="PauseButton">
	<g>
		<circle class="st25" cx="1007" cy="755.9" r="8.8"/>
		<circle class="st25" cx="1007" cy="755.9" r="8.8"/>
	</g>
	<g>
		<path class="st27" d="M1005.2,760.8h-1.9c-0.1,0-0.1-0.1-0.1-0.1v-9.6c0-0.1,0.1-0.1,0.1-0.1h1.9c0.1,0,0.1,0.1,0.1,0.1v9.6
			C1005.3,760.6,1005.3,760.8,1005.2,760.8z"/>
		<path class="st27" d="M1010.7,760.8h-1.9c-0.1,0-0.1-0.1-0.1-0.1v-9.6c0-0.1,0.1-0.1,0.1-0.1h1.9c0.1,0,0.1,0.1,0.1,0.1v9.6
			C1010.8,760.6,1010.8,760.8,1010.7,760.8z"/>
	</g>
</g>
<g id="VolumeDown">
	<g>
		<circle class="st25" cx="1042.7" cy="755.9" r="8.8"/>
		<circle class="st25" cx="1042.7" cy="755.9" r="8.8"/>
	</g>
	<g>
		<path class="st28" d="M1036.6,754.6v2.8c0,0.1,0.1,0.2,0.2,0.2h1.8h0.1l5,4.6c0.1,0.1,0.3,0,0.3-0.1V750c0-0.2-0.2-0.2-0.3-0.1
			l-4.9,4.5l-0.1,0.1h-1.8C1036.7,754.5,1036.6,754.5,1036.6,754.6z"/>
		<path class="st29" d="M1046,754.2c0.8,0,1.4,0.8,1.4,1.8c0,0.9-0.6,1.6-1.4,1.6"/>
	</g>
</g>
<g id="VolumeUp">
	<g>
		<circle class="st25" cx="1078.4" cy="755.9" r="8.8"/>
		<circle class="st25" cx="1078.4" cy="755.9" r="8.8"/>
	</g>
	<g>
		<path class="st28" d="M1070.7,754.6v2.8c0,0.1,0.1,0.2,0.2,0.2h1.8h0.1l5,4.6c0.1,0.1,0.3,0,0.3-0.1V750c0-0.2-0.2-0.2-0.3-0.1
			l-4.9,4.5l-0.1,0.1h-1.8C1070.8,754.5,1070.7,754.5,1070.7,754.6z"/>
		<path class="st30" d="M1080.8,754.6c0.6,0,1.1,0.6,1.1,1.4c0,0.7-0.4,1.3-1.1,1.3"/>
		<path class="st31" d="M1081.4,752.2c1.5,0,2.7,1.7,2.7,4c0,1.9-1.1,3.6-2.7,3.6"/>
	</g>
</g>
<path class="st32" d="M238.5,1099.4l75.1-102.3h17c0,0-60.2,72.8-83,100C246.1,1098.9,238.5,1099.4,238.5,1099.4z"/>
<path class="st33" d="M1014.5,1099l-75.4-101.9l-16.5,0c0,0,70.3,85.4,82.9,100.1C1007.2,1099.2,1014.5,1099,1014.5,1099z"/>
</svg>
