<?xml version="1.0" encoding="utf-8"?>
<!-- Generator: Adobe Illustrator 19.1.0, SVG Export Plug-In . SVG Version: 6.00 Build 0)  -->
<!DOCTYPE svg PUBLIC "-//W3C//DTD SVG 1.1//EN" "http://www.w3.org/Graphics/SVG/1.1/DTD/svg11.dtd">
<svg version="1.1" id="Layer_1" xmlns="http://www.w3.org/2000/svg" xmlns:xlink="http://www.w3.org/1999/xlink" x="0px" y="0px"
	 viewBox="122.5 261 1003.9 851.4" style="enable-background:new 122.5 261 1003.9 851.4;" xml:space="preserve">
<style type="text/css">
	.st0{fill:#E9C382;}
	.st1{fill:none;stroke:#E9C382;stroke-width:3.8324;stroke-miterlimit:10;}
	.st2{fill:none;stroke:#C6C3C1;stroke-width:5;stroke-miterlimit:10;}
	.st3{fill:#DB9F45;}
	.st4{fill:none;stroke:#DB9F45;stroke-width:5;stroke-miterlimit:10;}
	.st5{fill:#C45852;}
	.st6{fill:none;stroke:#C45852;stroke-width:5;stroke-miterlimit:10;}
	.st7{fill:#CCCACA;}
	.st8{fill:none;stroke:#A5A5A5;stroke-width:8.4114;stroke-miterlimit:10;}
	.st9{fill:none;stroke:#56514C;stroke-width:16.865;stroke-miterlimit:10;}
	.st10{fill:#302F2E;}
	.st11{fill:none;stroke:#302F2E;stroke-width:0.2924;stroke-miterlimit:10;}
	.st12{fill:#A5A5A5;}
	.st13{fill:none;stroke:#A5A5A5;stroke-width:5.8477;stroke-miterlimit:10;}
	.st14{fill:none;stroke:#E2DEDC;stroke-width:4;stroke-miterlimit:10;}
	.st15{fill:#E5E1DF;}
	.st16{fill:none;stroke:#E5E1DF;stroke-width:1.81;stroke-miterlimit:10;}
	.st17{fill:none;stroke:#A5A5A5;stroke-width:4.1279;stroke-miterlimit:10;}
	.st18{fill:none;stroke:#E5E1DF;stroke-width:1.0583;stroke-miterlimit:10;}
	.st19{fill:none;stroke:#4C4C4C;stroke-width:5.8762;stroke-miterlimit:10;}
	.st20{fill:#C6C3C1;stroke:#C6C3C1;stroke-width:7;stroke-miterlimit:10;}
</style>
<path class="st0" d="M988.5,1008.5l54.6,96.2c1.5,2.6-0.6,5.8-3.8,5.8h-34.6c-1.3,0-2.6-0.6-3.4-1.5L918,1008.2L988.5,1008.5z"/>
<path class="st1" d="M988.5,1008.5l54.6,96.2c1.5,2.6-0.6,5.8-3.8,5.8h-34.6c-1.3,0-2.6-0.6-3.4-1.5L918,1008.2L988.5,1008.5z"/>
<path class="st0" d="M255.4,1008.5l-54.6,96.2c-1.5,2.6,0.6,5.8,3.8,5.8h34.6c1.3,0,2.6-0.6,3.4-1.5l83.5-100.7L255.4,1008.5z"/>
<path class="st1" d="M255.4,1008.5l-54.6,96.2c-1.5,2.6,0.6,5.8,3.8,5.8h34.6c1.3,0,2.6-0.6,3.4-1.5l83.5-100.7L255.4,1008.5z"/>
<line class="st2" x1="908.5" y1="375.7" x2="829.8" y2="267.5"/>
<line class="st2" x1="908.4" y1="375.7" x2="987.1" y2="267.5"/>
<path class="st3" d="M197,964.6l11.7,29.4c3.3,8.2,11.2,13.6,20,13.6h789.6c8.8,0,16.8-5.4,20-13.6l11.7-29.4H197z"/>
<path class="st4" d="M197,964.6l11.7,29.4c3.3,8.2,11.2,13.6,20,13.6h789.6c8.8,0,16.8-5.4,20-13.6l11.7-29.4H197z"/>
<path class="st5" d="M125,381.9v565.7c0,9.2,7.5,16.6,16.6,16.6h965.7c9.2,0,16.6-7.5,16.6-16.6V381.9c0-9.2-7.5-16.6-16.6-16.6
	H141.6C132.5,365.2,125,372.7,125,381.9z M883.3,892.5c-0.8,9.2-8,17.1-15.9,17.4c-225.4,9.1-451.7,9.1-677.1,0
	c-8-0.3-15.2-8.2-15.9-17.4c-11.1-151.7-11.1-304.7,0-456.4c0.8-9.2,8-17.1,15.9-17.4c225.4-9.1,451.7-9.1,677.1,0
	c8,0.3,15.2,8.2,15.9,17.4C894.3,587.8,894.3,740.9,883.3,892.5z"/>
<path class="st6" d="M125,381.9v565.7c0,9.2,7.5,16.6,16.6,16.6h965.7c9.2,0,16.6-7.5,16.6-16.6V381.9c0-9.2-7.5-16.6-16.6-16.6
	H141.6C132.5,365.2,125,372.7,125,381.9z M883.3,892.5c-0.8,9.2-8,17.1-15.9,17.4c-225.4,9.1-451.7,9.1-677.1,0
	c-8-0.3-15.2-8.2-15.9-17.4c-11.1-151.7-11.1-304.7,0-456.4c0.8-9.2,8-17.1,15.9-17.4c225.4-9.1,451.7-9.1,677.1,0
	c8,0.3,15.2,8.2,15.9,17.4C894.3,587.8,894.3,740.9,883.3,892.5z"/>
<path class="st7" d="M944.1,417.4h152.8c2.2,0,4,19.1,4,42.6v311.5c0,23.6-1.8,42.6-4,42.6H944.1c-2.2,0-4-19.1-4-42.6V460
	C940.1,436.5,941.9,417.4,944.1,417.4z"/>
<path class="st8" d="M944.1,417.4h152.8c2.2,0,4,19.1,4,42.6v311.5c0,23.6-1.8,42.6-4,42.6H944.1c-2.2,0-4-19.1-4-42.6V460
	C940.1,436.5,941.9,417.4,944.1,417.4z"/>
<path class="st9" d="M861.1,910.6c-221.2,9.1-443.3,9.1-664.5,0c-7.8-0.3-14.9-8.2-15.6-17.5c-10.9-152-10.9-305.3,0-457.3
	c0.8-9.3,7.8-17.1,15.6-17.5c221.2-9.1,443.3-9.1,664.5,0c7.8,0.3,14.9,8.2,15.6,17.5c10.9,152,10.9,305.3,0,457.3
	C875.9,902.4,868.9,910.3,861.1,910.6z"/>
<circle class="st10" cx="951.1" cy="854.5" r="2.5"/>
<circle class="st11" cx="951.1" cy="854.5" r="2.5"/>
<circle class="st10" cx="961.1" cy="854.5" r="2.5"/>
<circle class="st11" cx="961.1" cy="854.5" r="2.5"/>
<circle class="st10" cx="971.1" cy="854.5" r="2.5"/>
<circle class="st11" cx="971.1" cy="854.5" r="2.5"/>
<circle class="st10" cx="981.1" cy="854.5" r="2.5"/>
<circle class="st11" cx="981.1" cy="854.5" r="2.5"/>
<circle class="st10" cx="991.1" cy="854.5" r="2.5"/>
<circle class="st11" cx="991.1" cy="854.5" r="2.5"/>
<circle class="st10" cx="1001.1" cy="854.5" r="2.5"/>
<circle class="st11" cx="1001.1" cy="854.5" r="2.5"/>
<circle class="st10" cx="1011.1" cy="854.5" r="2.5"/>
<circle class="st11" cx="1011.1" cy="854.5" r="2.5"/>
<circle class="st10" cx="1021.1" cy="854.5" r="2.5"/>
<circle class="st11" cx="1021.1" cy="854.5" r="2.5"/>
<circle class="st10" cx="1031.1" cy="854.5" r="2.5"/>
<circle class="st11" cx="1031.1" cy="854.5" r="2.5"/>
<circle class="st10" cx="1041.1" cy="854.5" r="2.5"/>
<circle class="st11" cx="1041.1" cy="854.5" r="2.5"/>
<circle class="st10" cx="1051.1" cy="854.5" r="2.5"/>
<circle class="st11" cx="1051.1" cy="854.5" r="2.5"/>
<circle class="st10" cx="1061.1" cy="854.5" r="2.5"/>
<circle class="st11" cx="1061.1" cy="854.5" r="2.5"/>
<circle class="st10" cx="1071.1" cy="854.5" r="2.5"/>
<circle class="st11" cx="1071.1" cy="854.5" r="2.5"/>
<circle class="st10" cx="951.1" cy="864.5" r="2.5"/>
<circle class="st11" cx="951.1" cy="864.5" r="2.5"/>
<circle class="st10" cx="961.1" cy="864.5" r="2.5"/>
<circle class="st11" cx="961.1" cy="864.5" r="2.5"/>
<circle class="st10" cx="971.1" cy="864.5" r="2.5"/>
<circle class="st11" cx="971.1" cy="864.5" r="2.5"/>
<circle class="st10" cx="981.1" cy="864.5" r="2.5"/>
<circle class="st11" cx="981.1" cy="864.5" r="2.5"/>
<circle class="st10" cx="991.1" cy="864.5" r="2.5"/>
<circle class="st11" cx="991.1" cy="864.5" r="2.5"/>
<circle class="st10" cx="1001.1" cy="864.5" r="2.5"/>
<circle class="st11" cx="1001.1" cy="864.5" r="2.5"/>
<circle class="st10" cx="1011.1" cy="864.5" r="2.5"/>
<circle class="st11" cx="1011.1" cy="864.5" r="2.5"/>
<circle class="st10" cx="1021.1" cy="864.5" r="2.5"/>
<circle class="st11" cx="1021.1" cy="864.5" r="2.5"/>
<circle class="st10" cx="1031.1" cy="864.5" r="2.5"/>
<circle class="st11" cx="1031.1" cy="864.5" r="2.5"/>
<circle class="st10" cx="1041.1" cy="864.5" r="2.5"/>
<circle class="st11" cx="1041.1" cy="864.5" r="2.5"/>
<circle class="st10" cx="1051.1" cy="864.5" r="2.5"/>
<circle class="st11" cx="1051.1" cy="864.5" r="2.5"/>
<circle class="st10" cx="1061.1" cy="864.5" r="2.5"/>
<circle class="st11" cx="1061.1" cy="864.5" r="2.5"/>
<circle class="st10" cx="1071.1" cy="864.5" r="2.5"/>
<circle class="st11" cx="1071.1" cy="864.5" r="2.5"/>
<circle class="st10" cx="951.1" cy="874.5" r="2.5"/>
<circle class="st11" cx="951.1" cy="874.5" r="2.5"/>
<circle class="st10" cx="961.1" cy="874.5" r="2.5"/>
<circle class="st11" cx="961.1" cy="874.5" r="2.5"/>
<circle class="st10" cx="971.1" cy="874.5" r="2.5"/>
<circle class="st11" cx="971.1" cy="874.5" r="2.5"/>
<circle class="st10" cx="981.1" cy="874.5" r="2.5"/>
<circle class="st11" cx="981.1" cy="874.5" r="2.5"/>
<circle class="st10" cx="991.1" cy="874.5" r="2.5"/>
<circle class="st11" cx="991.1" cy="874.5" r="2.5"/>
<circle class="st10" cx="1001.1" cy="874.5" r="2.5"/>
<circle class="st11" cx="1001.1" cy="874.5" r="2.5"/>
<circle class="st10" cx="1011.1" cy="874.5" r="2.5"/>
<circle class="st11" cx="1011.1" cy="874.5" r="2.5"/>
<circle class="st10" cx="1021.1" cy="874.5" r="2.5"/>
<circle class="st11" cx="1021.1" cy="874.5" r="2.5"/>
<circle class="st10" cx="1031.1" cy="874.5" r="2.5"/>
<circle class="st11" cx="1031.1" cy="874.5" r="2.5"/>
<circle class="st10" cx="1041.1" cy="874.5" r="2.5"/>
<circle class="st11" cx="1041.1" cy="874.5" r="2.5"/>
<circle class="st10" cx="1051.1" cy="874.5" r="2.5"/>
<circle class="st11" cx="1051.1" cy="874.5" r="2.5"/>
<circle class="st10" cx="1061.1" cy="874.5" r="2.5"/>
<circle class="st11" cx="1061.1" cy="874.5" r="2.5"/>
<circle class="st10" cx="1071.1" cy="874.5" r="2.5"/>
<circle class="st11" cx="1071.1" cy="874.5" r="2.5"/>
<circle class="st10" cx="951.1" cy="884.5" r="2.5"/>
<circle class="st11" cx="951.1" cy="884.5" r="2.5"/>
<circle class="st10" cx="961.1" cy="884.5" r="2.5"/>
<circle class="st11" cx="961.1" cy="884.5" r="2.5"/>
<circle class="st10" cx="971.1" cy="884.5" r="2.5"/>
<circle class="st11" cx="971.1" cy="884.5" r="2.5"/>
<circle class="st10" cx="981.1" cy="884.5" r="2.5"/>
<circle class="st11" cx="981.1" cy="884.5" r="2.5"/>
<circle class="st10" cx="991.1" cy="884.5" r="2.5"/>
<circle class="st11" cx="991.1" cy="884.5" r="2.5"/>
<circle class="st10" cx="1001.1" cy="884.5" r="2.5"/>
<circle class="st11" cx="1001.1" cy="884.5" r="2.5"/>
<circle class="st10" cx="1011.1" cy="884.5" r="2.5"/>
<circle class="st11" cx="1011.1" cy="884.5" r="2.5"/>
<circle class="st10" cx="1021.1" cy="884.5" r="2.5"/>
<circle class="st11" cx="1021.1" cy="884.5" r="2.5"/>
<circle class="st10" cx="1031.1" cy="884.5" r="2.5"/>
<circle class="st11" cx="1031.1" cy="884.5" r="2.5"/>
<circle class="st10" cx="1041.1" cy="884.5" r="2.5"/>
<circle class="st11" cx="1041.1" cy="884.5" r="2.5"/>
<circle class="st10" cx="1051.1" cy="884.5" r="2.5"/>
<circle class="st11" cx="1051.1" cy="884.5" r="2.5"/>
<circle class="st10" cx="1061.1" cy="884.5" r="2.5"/>
<circle class="st11" cx="1061.1" cy="884.5" r="2.5"/>
<circle class="st10" cx="1071.1" cy="884.5" r="2.5"/>
<circle class="st11" cx="1071.1" cy="884.5" r="2.5"/>
<circle class="st10" cx="951.1" cy="894.5" r="2.5"/>
<circle class="st11" cx="951.1" cy="894.5" r="2.5"/>
<circle class="st10" cx="961.1" cy="894.5" r="2.5"/>
<circle class="st11" cx="961.1" cy="894.5" r="2.5"/>
<circle class="st10" cx="971.1" cy="894.5" r="2.5"/>
<circle class="st11" cx="971.1" cy="894.5" r="2.5"/>
<circle class="st10" cx="981.1" cy="894.5" r="2.5"/>
<circle class="st11" cx="981.1" cy="894.5" r="2.5"/>
<circle class="st10" cx="991.1" cy="894.5" r="2.5"/>
<circle class="st11" cx="991.1" cy="894.5" r="2.5"/>
<circle class="st10" cx="1001.1" cy="894.5" r="2.5"/>
<circle class="st11" cx="1001.1" cy="894.5" r="2.5"/>
<circle class="st10" cx="1011.1" cy="894.5" r="2.5"/>
<circle class="st11" cx="1011.1" cy="894.5" r="2.5"/>
<circle class="st10" cx="1021.1" cy="894.5" r="2.5"/>
<circle class="st11" cx="1021.1" cy="894.5" r="2.5"/>
<circle class="st10" cx="1031.1" cy="894.5" r="2.5"/>
<circle class="st11" cx="1031.1" cy="894.5" r="2.5"/>
<circle class="st10" cx="1041.1" cy="894.5" r="2.5"/>
<circle class="st11" cx="1041.1" cy="894.5" r="2.5"/>
<circle class="st10" cx="1051.1" cy="894.5" r="2.5"/>
<circle class="st11" cx="1051.1" cy="894.5" r="2.5"/>
<circle class="st10" cx="1061.1" cy="894.5" r="2.5"/>
<circle class="st11" cx="1061.1" cy="894.5" r="2.5"/>
<circle class="st10" cx="1071.1" cy="894.5" r="2.5"/>
<circle class="st11" cx="1071.1" cy="894.5" r="2.5"/>
<circle class="st10" cx="951.1" cy="904.5" r="2.5"/>
<circle class="st11" cx="951.1" cy="904.5" r="2.5"/>
<circle class="st10" cx="961.1" cy="904.5" r="2.5"/>
<circle class="st11" cx="961.1" cy="904.5" r="2.5"/>
<circle class="st10" cx="971.1" cy="904.5" r="2.5"/>
<circle class="st11" cx="971.1" cy="904.5" r="2.5"/>
<circle class="st10" cx="981.1" cy="904.5" r="2.5"/>
<circle class="st11" cx="981.1" cy="904.5" r="2.5"/>
<circle class="st10" cx="991.1" cy="904.5" r="2.5"/>
<circle class="st11" cx="991.1" cy="904.5" r="2.5"/>
<circle class="st10" cx="1001.1" cy="904.5" r="2.5"/>
<circle class="st11" cx="1001.1" cy="904.5" r="2.5"/>
<circle class="st10" cx="1011.1" cy="904.5" r="2.5"/>
<circle class="st11" cx="1011.1" cy="904.5" r="2.5"/>
<circle class="st10" cx="1021.1" cy="904.5" r="2.5"/>
<circle class="st11" cx="1021.1" cy="904.5" r="2.5"/>
<circle class="st10" cx="1031.1" cy="904.5" r="2.5"/>
<circle class="st11" cx="1031.1" cy="904.5" r="2.5"/>
<circle class="st10" cx="1041.1" cy="904.5" r="2.5"/>
<circle class="st11" cx="1041.1" cy="904.5" r="2.5"/>
<circle class="st10" cx="1051.1" cy="904.5" r="2.5"/>
<circle class="st11" cx="1051.1" cy="904.5" r="2.5"/>
<circle class="st10" cx="1061.1" cy="904.5" r="2.5"/>
<circle class="st11" cx="1061.1" cy="904.5" r="2.5"/>
<circle class="st10" cx="1071.1" cy="904.5" r="2.5"/>
<circle class="st11" cx="1071.1" cy="904.5" r="2.5"/>
<circle class="st10" cx="951.1" cy="914.5" r="2.5"/>
<circle class="st11" cx="951.1" cy="914.5" r="2.5"/>
<circle class="st10" cx="961.1" cy="914.5" r="2.5"/>
<circle class="st11" cx="961.1" cy="914.5" r="2.5"/>
<circle class="st10" cx="971.1" cy="914.5" r="2.5"/>
<circle class="st11" cx="971.1" cy="914.5" r="2.5"/>
<circle class="st10" cx="981.1" cy="914.5" r="2.5"/>
<circle class="st11" cx="981.1" cy="914.5" r="2.5"/>
<circle class="st10" cx="991.1" cy="914.5" r="2.5"/>
<circle class="st11" cx="991.1" cy="914.5" r="2.5"/>
<circle class="st10" cx="1001.1" cy="914.5" r="2.5"/>
<circle class="st11" cx="1001.1" cy="914.5" r="2.5"/>
<circle class="st10" cx="1011.1" cy="914.5" r="2.5"/>
<circle class="st11" cx="1011.1" cy="914.5" r="2.5"/>
<circle class="st10" cx="1021.1" cy="914.5" r="2.5"/>
<circle class="st11" cx="1021.1" cy="914.5" r="2.5"/>
<circle class="st10" cx="1031.1" cy="914.5" r="2.5"/>
<circle class="st11" cx="1031.1" cy="914.5" r="2.5"/>
<circle class="st10" cx="1041.1" cy="914.5" r="2.5"/>
<circle class="st11" cx="1041.1" cy="914.5" r="2.5"/>
<circle class="st10" cx="1051.1" cy="914.5" r="2.5"/>
<circle class="st11" cx="1051.1" cy="914.5" r="2.5"/>
<circle class="st10" cx="1061.1" cy="914.5" r="2.5"/>
<circle class="st11" cx="1061.1" cy="914.5" r="2.5"/>
<circle class="st10" cx="1071.1" cy="914.5" r="2.5"/>
<circle class="st11" cx="1071.1" cy="914.5" r="2.5"/>
<circle class="st10" cx="951.1" cy="924.5" r="2.5"/>
<circle class="st11" cx="951.1" cy="924.5" r="2.5"/>
<circle class="st10" cx="961.1" cy="924.5" r="2.5"/>
<circle class="st11" cx="961.1" cy="924.5" r="2.5"/>
<circle class="st10" cx="971.1" cy="924.5" r="2.5"/>
<circle class="st11" cx="971.1" cy="924.5" r="2.5"/>
<circle class="st10" cx="981.1" cy="924.5" r="2.5"/>
<circle class="st11" cx="981.1" cy="924.5" r="2.5"/>
<circle class="st10" cx="991.1" cy="924.5" r="2.5"/>
<circle class="st11" cx="991.1" cy="924.5" r="2.5"/>
<circle class="st10" cx="1001.1" cy="924.5" r="2.5"/>
<circle class="st11" cx="1001.1" cy="924.5" r="2.5"/>
<circle class="st10" cx="1011.1" cy="924.5" r="2.5"/>
<circle class="st11" cx="1011.1" cy="924.5" r="2.5"/>
<circle class="st10" cx="1021.1" cy="924.5" r="2.5"/>
<circle class="st11" cx="1021.1" cy="924.5" r="2.5"/>
<circle class="st10" cx="1031.1" cy="924.5" r="2.5"/>
<circle class="st11" cx="1031.1" cy="924.5" r="2.5"/>
<circle class="st10" cx="1041.1" cy="924.5" r="2.5"/>
<circle class="st11" cx="1041.1" cy="924.5" r="2.5"/>
<circle class="st10" cx="1051.1" cy="924.5" r="2.5"/>
<circle class="st11" cx="1051.1" cy="924.5" r="2.5"/>
<circle class="st10" cx="1061.1" cy="924.5" r="2.5"/>
<circle class="st11" cx="1061.1" cy="924.5" r="2.5"/>
<circle class="st10" cx="1071.1" cy="924.5" r="2.5"/>
<circle class="st11" cx="1071.1" cy="924.5" r="2.5"/>
<circle class="st10" cx="1081.1" cy="854.5" r="2.5"/>
<circle class="st11" cx="1081.1" cy="854.5" r="2.5"/>
<circle class="st10" cx="1081.1" cy="864.5" r="2.5"/>
<circle class="st11" cx="1081.1" cy="864.5" r="2.5"/>
<circle class="st10" cx="1081.1" cy="874.5" r="2.5"/>
<circle class="st11" cx="1081.1" cy="874.5" r="2.5"/>
<circle class="st10" cx="1081.1" cy="884.5" r="2.5"/>
<circle class="st11" cx="1081.1" cy="884.5" r="2.5"/>
<circle class="st10" cx="1081.1" cy="894.5" r="2.5"/>
<circle class="st11" cx="1081.1" cy="894.5" r="2.5"/>
<circle class="st10" cx="1081.1" cy="904.5" r="2.5"/>
<circle class="st11" cx="1081.1" cy="904.5" r="2.5"/>
<circle class="st10" cx="1081.1" cy="914.5" r="2.5"/>
<circle class="st11" cx="1081.1" cy="914.5" r="2.5"/>
<circle class="st10" cx="1081.1" cy="924.5" r="2.5"/>
<circle class="st11" cx="1081.1" cy="924.5" r="2.5"/>
<circle class="st10" cx="1091.1" cy="854.5" r="2.5"/>
<circle class="st11" cx="1091.1" cy="854.5" r="2.5"/>
<circle class="st10" cx="1091.1" cy="864.5" r="2.5"/>
<circle class="st11" cx="1091.1" cy="864.5" r="2.5"/>
<circle class="st10" cx="1091.1" cy="874.5" r="2.5"/>
<circle class="st11" cx="1091.1" cy="874.5" r="2.5"/>
<circle class="st10" cx="1091.1" cy="884.5" r="2.5"/>
<circle class="st11" cx="1091.1" cy="884.5" r="2.5"/>
<circle class="st10" cx="1091.1" cy="894.5" r="2.5"/>
<circle class="st11" cx="1091.1" cy="894.5" r="2.5"/>
<circle class="st10" cx="1091.1" cy="904.5" r="2.5"/>
<circle class="st11" cx="1091.1" cy="904.5" r="2.5"/>
<circle class="st10" cx="1091.1" cy="914.5" r="2.5"/>
<circle class="st11" cx="1091.1" cy="914.5" r="2.5"/>
<circle class="st10" cx="1091.1" cy="924.5" r="2.5"/>
<circle class="st11" cx="1091.1" cy="924.5" r="2.5"/>
<g id="UpperKnob">
	<circle class="st12" cx="1020.7" cy="507" r="58.5"/>
	<circle class="st13" cx="1020.7" cy="507" r="58.5"/>
	<circle class="st10" cx="1020.7" cy="507" r="49.6"/>
	<circle class="st14" cx="1020.7" cy="507" r="49.6"/>
	<path class="st15" d="M1057.5,490.3c0.2,0.2,0.1,0.5-0.1,0.7l-63,46.6c-0.2,0.2-0.5,0.1-0.7-0.1l-9.4-12.8
		c-0.2-0.2-0.1-0.5,0.1-0.7l63-46.6c0.2-0.2,0.5-0.1,0.7,0.1L1057.5,490.3z"/>
	<path class="st16" d="M1057.5,490.3c0.2,0.2,0.1,0.5-0.1,0.7l-63,46.6c-0.2,0.2-0.5,0.1-0.7-0.1l-9.4-12.8
		c-0.2-0.2-0.1-0.5,0.1-0.7l63-46.6c0.2-0.2,0.5-0.1,0.7,0.1L1057.5,490.3z"/>
</g>
<g id="LowerKnob">
	<circle class="st12" cx="1020.7" cy="638" r="41.3"/>
	<circle class="st17" cx="1020.7" cy="638" r="41.3"/>
	<circle class="st10" cx="1020.7" cy="638" r="31.3"/>
	<circle class="st14" cx="1020.7" cy="638" r="31.3"/>
	<path class="st15" d="M1011,615.5c0.2-0.2,0.5-0.1,0.7,0.1l26,39.4c0.2,0.2,0.1,0.5-0.1,0.7l-7.1,4.7c-0.2,0.2-0.5,0.1-0.7-0.1
		l-26-39.4c-0.2-0.2-0.1-0.5,0.1-0.7L1011,615.5z"/>
	<path class="st18" d="M1011,615.5c0.2-0.2,0.5-0.1,0.7,0.1l26,39.4c0.2,0.2,0.1,0.5-0.1,0.7l-7.1,4.7c-0.2,0.2-0.5,0.1-0.7-0.1
		l-26-39.4c-0.2-0.2-0.1-0.5,0.1-0.7L1011,615.5z"/>
</g>
<circle class="st12" cx="979.2" cy="767.5" r="8.9"/>
<circle class="st17" cx="979.2" cy="767.5" r="8.9"/>
<ellipse class="st19" cx="979.2" cy="767.5" rx="3" ry="2.9"/>
<circle class="st15" cx="979.6" cy="767.2" r="2.5"/>
<circle class="st18" cx="979.6" cy="767.2" r="2.5"/>
<circle class="st12" cx="1007.2" cy="767.5" r="8.9"/>
<circle class="st17" cx="1007.2" cy="767.5" r="8.9"/>
<ellipse class="st19" cx="1007.2" cy="767.5" rx="3" ry="2.9"/>
<circle class="st15" cx="1007.6" cy="767.2" r="2.5"/>
<circle class="st18" cx="1007.6" cy="767.2" r="2.5"/>
<circle class="st12" cx="1035.2" cy="767.5" r="8.9"/>
<circle class="st17" cx="1035.2" cy="767.5" r="8.9"/>
<ellipse class="st19" cx="1035.2" cy="767.5" rx="3" ry="2.9"/>
<circle class="st15" cx="1035.6" cy="767.2" r="2.5"/>
<circle class="st18" cx="1035.6" cy="767.2" r="2.5"/>
<circle class="st12" cx="1063.2" cy="767.5" r="8.9"/>
<circle class="st17" cx="1063.2" cy="767.5" r="8.9"/>
<ellipse class="st19" cx="1063.2" cy="767.5" rx="3" ry="2.9"/>
<circle class="st15" cx="1063.6" cy="767.2" r="2.5"/>
<circle class="st18" cx="1063.6" cy="767.2" r="2.5"/>
<circle class="st20" cx="829.3" cy="267" r="2.5"/>
<circle class="st20" cx="987.3" cy="268" r="2.5"/>
</svg>
